<svg width="342" height="116" viewBox="0 0 342 116" fill="none" xmlns="http://www.w3.org/2000/svg">
<g filter="url(#filter0_d_399:2)">
<rect x="128.99" y="44" width="84.0208" height="6" fill="black"/>
<path d="M173.36 1.23223C172.383 0.255924 170.8 0.255924 169.824 1.23223L153.914 17.1421C152.938 18.1184 152.938 19.7014 153.914 20.6777C154.89 21.654 156.473 21.654 157.45 20.6777L171.592 6.53553L185.734 20.6777C186.71 21.654 188.293 21.654 189.269 20.6777C190.246 19.7014 190.246 18.1184 189.269 17.1421L173.36 1.23223ZM174.092 44V3H169.092V44H174.092Z" fill="black"/>
<path d="M27.7637 98.8965C27.7637 98.2878 27.5488 97.8223 27.1191 97.5C26.6895 97.1706 25.916 96.8268 24.7988 96.4688C23.6816 96.1035 22.7972 95.7454 22.1455 95.3945C20.3695 94.4349 19.4814 93.1423 19.4814 91.5166C19.4814 90.6715 19.7178 89.9196 20.1904 89.2607C20.6702 88.5947 21.3542 88.0755 22.2422 87.7031C23.1374 87.3307 24.14 87.1445 25.25 87.1445C26.3672 87.1445 27.3626 87.3486 28.2363 87.7568C29.11 88.1579 29.7868 88.7272 30.2666 89.4648C30.7536 90.2025 30.9971 91.0404 30.9971 91.9785H27.7744C27.7744 91.2624 27.5488 90.7074 27.0977 90.3135C26.6465 89.9124 26.0127 89.7119 25.1963 89.7119C24.4085 89.7119 23.7962 89.8802 23.3594 90.2168C22.9225 90.5462 22.7041 90.9831 22.7041 91.5273C22.7041 92.0358 22.9583 92.4619 23.4668 92.8057C23.9824 93.1494 24.738 93.4717 25.7334 93.7725C27.5667 94.3239 28.9023 95.0078 29.7402 95.8242C30.5781 96.6406 30.9971 97.6576 30.9971 98.875C30.9971 100.229 30.485 101.292 29.4609 102.065C28.4368 102.832 27.0583 103.215 25.3252 103.215C24.1221 103.215 23.0264 102.996 22.0381 102.56C21.0498 102.116 20.2943 101.51 19.7715 100.744C19.2559 99.9779 18.998 99.0898 18.998 98.0801H22.2314C22.2314 99.806 23.2627 100.669 25.3252 100.669C26.0915 100.669 26.6895 100.515 27.1191 100.207C27.5488 99.8919 27.7637 99.4551 27.7637 98.8965ZM39.9453 101.818C39.179 102.749 38.1191 103.215 36.7656 103.215C35.5195 103.215 34.5671 102.857 33.9082 102.141C33.2565 101.424 32.9235 100.375 32.9092 98.9932V91.377H36.0137V98.8857C36.0137 100.096 36.5651 100.701 37.668 100.701C38.7207 100.701 39.444 100.336 39.8379 99.6055V91.377H42.9531V103H40.0312L39.9453 101.818ZM50.6445 103.215C48.9401 103.215 47.5508 102.692 46.4766 101.646C45.4095 100.601 44.876 99.208 44.876 97.4678V97.167C44.876 95.9997 45.1016 94.9577 45.5527 94.041C46.0039 93.1172 46.6413 92.4082 47.4648 91.9141C48.2956 91.4128 49.2409 91.1621 50.3008 91.1621C51.8906 91.1621 53.1403 91.6634 54.0498 92.666C54.9665 93.6686 55.4248 95.0902 55.4248 96.9307V98.1982H48.0234C48.1237 98.9574 48.4245 99.5661 48.9258 100.024C49.4342 100.483 50.0752 100.712 50.8486 100.712C52.0446 100.712 52.9792 100.279 53.6523 99.4121L55.1777 101.12C54.7122 101.779 54.082 102.295 53.2871 102.667C52.4922 103.032 51.6113 103.215 50.6445 103.215ZM50.29 93.6758C49.6742 93.6758 49.1729 93.8835 48.7861 94.2988C48.4066 94.7142 48.1631 95.3086 48.0557 96.082H52.374V95.835C52.3597 95.1475 52.1735 94.6175 51.8154 94.2451C51.4574 93.8656 50.9489 93.6758 50.29 93.6758ZM60.4736 103H57.3584V86.5H60.4736V103ZM66.7578 88.5195V91.377H68.7451V93.6543H66.7578V99.4551C66.7578 99.8848 66.8402 100.193 67.0049 100.379C67.1696 100.565 67.4847 100.658 67.9502 100.658C68.2939 100.658 68.5983 100.633 68.8633 100.583V102.936C68.2546 103.122 67.6279 103.215 66.9834 103.215C64.8063 103.215 63.6963 102.116 63.6533 99.917V93.6543H61.9561V91.377H63.6533V88.5195H66.7578ZM77.21 103C77.0667 102.721 76.9629 102.373 76.8984 101.958C76.1465 102.796 75.1689 103.215 73.9658 103.215C72.8271 103.215 71.8818 102.885 71.1299 102.227C70.3851 101.568 70.0127 100.737 70.0127 99.7344C70.0127 98.5026 70.4674 97.5573 71.377 96.8984C72.2936 96.2396 73.6149 95.9066 75.3408 95.8994H76.7695V95.2334C76.7695 94.6963 76.6299 94.2666 76.3506 93.9443C76.0785 93.6221 75.6452 93.4609 75.0508 93.4609C74.528 93.4609 74.1162 93.5863 73.8154 93.8369C73.5218 94.0876 73.375 94.4313 73.375 94.8682H70.2705C70.2705 94.195 70.4782 93.5719 70.8936 92.999C71.3089 92.4261 71.8962 91.9785 72.6553 91.6562C73.4144 91.3268 74.2666 91.1621 75.2119 91.1621C76.6442 91.1621 77.7793 91.5238 78.6172 92.2471C79.4622 92.9632 79.8848 93.973 79.8848 95.2764V100.314C79.8919 101.417 80.0459 102.252 80.3467 102.817V103H77.21ZM74.6426 100.841C75.1009 100.841 75.5234 100.741 75.9102 100.54C76.2969 100.332 76.5833 100.057 76.7695 99.7129V97.7148H75.6094C74.0553 97.7148 73.2282 98.252 73.1279 99.3262L73.1172 99.5088C73.1172 99.8955 73.2533 100.214 73.5254 100.465C73.7975 100.715 74.1699 100.841 74.6426 100.841ZM98.2109 97.2959C98.2109 99.0863 97.8027 100.522 96.9863 101.604C96.1771 102.678 95.0814 103.215 93.6992 103.215C92.5247 103.215 91.5758 102.807 90.8525 101.99V107.469H87.748V91.377H90.627L90.7344 92.5156C91.4863 91.6133 92.4674 91.1621 93.6777 91.1621C95.11 91.1621 96.2236 91.6921 97.0186 92.752C97.8135 93.8118 98.2109 95.2728 98.2109 97.1348V97.2959ZM95.1064 97.0703C95.1064 95.9889 94.9131 95.1546 94.5264 94.5674C94.1468 93.9801 93.5918 93.6865 92.8613 93.6865C91.8874 93.6865 91.2178 94.0589 90.8525 94.8037V99.5625C91.2321 100.329 91.9089 100.712 92.8828 100.712C94.3652 100.712 95.1064 99.498 95.1064 97.0703ZM106.88 103C106.737 102.721 106.633 102.373 106.568 101.958C105.816 102.796 104.839 103.215 103.636 103.215C102.497 103.215 101.552 102.885 100.8 102.227C100.055 101.568 99.6826 100.737 99.6826 99.7344C99.6826 98.5026 100.137 97.5573 101.047 96.8984C101.964 96.2396 103.285 95.9066 105.011 95.8994H106.439V95.2334C106.439 94.6963 106.3 94.2666 106.021 93.9443C105.748 93.6221 105.315 93.4609 104.721 93.4609C104.198 93.4609 103.786 93.5863 103.485 93.8369C103.192 94.0876 103.045 94.4313 103.045 94.8682H99.9404C99.9404 94.195 100.148 93.5719 100.563 92.999C100.979 92.4261 101.566 91.9785 102.325 91.6562C103.084 91.3268 103.937 91.1621 104.882 91.1621C106.314 91.1621 107.449 91.5238 108.287 92.2471C109.132 92.9632 109.555 93.973 109.555 95.2764V100.314C109.562 101.417 109.716 102.252 110.017 102.817V103H106.88ZM104.312 100.841C104.771 100.841 105.193 100.741 105.58 100.54C105.967 100.332 106.253 100.057 106.439 99.7129V97.7148H105.279C103.725 97.7148 102.898 98.252 102.798 99.3262L102.787 99.5088C102.787 99.8955 102.923 100.214 103.195 100.465C103.467 100.715 103.84 100.841 104.312 100.841ZM118.471 94.2881C118.048 94.2308 117.676 94.2021 117.354 94.2021C116.179 94.2021 115.409 94.5996 115.044 95.3945V103H111.939V91.377H114.872L114.958 92.7627C115.581 91.6956 116.444 91.1621 117.547 91.1621C117.891 91.1621 118.213 91.2087 118.514 91.3018L118.471 94.2881ZM126.388 103C126.244 102.721 126.141 102.373 126.076 101.958C125.324 102.796 124.347 103.215 123.144 103.215C122.005 103.215 121.06 102.885 120.308 102.227C119.563 101.568 119.19 100.737 119.19 99.7344C119.19 98.5026 119.645 97.5573 120.555 96.8984C121.471 96.2396 122.793 95.9066 124.519 95.8994H125.947V95.2334C125.947 94.6963 125.808 94.2666 125.528 93.9443C125.256 93.6221 124.823 93.4609 124.229 93.4609C123.706 93.4609 123.294 93.5863 122.993 93.8369C122.7 94.0876 122.553 94.4313 122.553 94.8682H119.448C119.448 94.195 119.656 93.5719 120.071 92.999C120.487 92.4261 121.074 91.9785 121.833 91.6562C122.592 91.3268 123.444 91.1621 124.39 91.1621C125.822 91.1621 126.957 91.5238 127.795 92.2471C128.64 92.9632 129.062 93.973 129.062 95.2764V100.314C129.07 101.417 129.224 102.252 129.524 102.817V103H126.388ZM123.82 100.841C124.279 100.841 124.701 100.741 125.088 100.54C125.475 100.332 125.761 100.057 125.947 99.7129V97.7148H124.787C123.233 97.7148 122.406 98.252 122.306 99.3262L122.295 99.5088C122.295 99.8955 122.431 100.214 122.703 100.465C122.975 100.715 123.348 100.841 123.82 100.841ZM141.76 100.712C142.333 100.712 142.798 100.554 143.156 100.239C143.514 99.9242 143.701 99.5052 143.715 98.9824H146.626C146.619 99.7702 146.404 100.493 145.981 101.152C145.559 101.804 144.979 102.312 144.241 102.678C143.511 103.036 142.701 103.215 141.813 103.215C140.152 103.215 138.841 102.688 137.882 101.636C136.922 100.576 136.442 99.1149 136.442 97.2529V97.0488C136.442 95.2585 136.919 93.8298 137.871 92.7627C138.824 91.6956 140.131 91.1621 141.792 91.1621C143.246 91.1621 144.41 91.5775 145.283 92.4082C146.164 93.2318 146.612 94.3311 146.626 95.7061H143.715C143.701 95.1045 143.514 94.6175 143.156 94.2451C142.798 93.8656 142.326 93.6758 141.738 93.6758C141.015 93.6758 140.467 93.9408 140.095 94.4707C139.729 94.9935 139.547 95.8457 139.547 97.0273V97.3496C139.547 98.5456 139.729 99.4049 140.095 99.9277C140.46 100.451 141.015 100.712 141.76 100.712ZM155.134 103C154.991 102.721 154.887 102.373 154.822 101.958C154.07 102.796 153.093 103.215 151.89 103.215C150.751 103.215 149.806 102.885 149.054 102.227C148.309 101.568 147.937 100.737 147.937 99.7344C147.937 98.5026 148.391 97.5573 149.301 96.8984C150.217 96.2396 151.539 95.9066 153.265 95.8994H154.693V95.2334C154.693 94.6963 154.554 94.2666 154.274 93.9443C154.002 93.6221 153.569 93.4609 152.975 93.4609C152.452 93.4609 152.04 93.5863 151.739 93.8369C151.446 94.0876 151.299 94.4313 151.299 94.8682H148.194C148.194 94.195 148.402 93.5719 148.817 92.999C149.233 92.4261 149.82 91.9785 150.579 91.6562C151.338 91.3268 152.19 91.1621 153.136 91.1621C154.568 91.1621 155.703 91.5238 156.541 92.2471C157.386 92.9632 157.809 93.973 157.809 95.2764V100.314C157.816 101.417 157.97 102.252 158.271 102.817V103H155.134ZM152.566 100.841C153.025 100.841 153.447 100.741 153.834 100.54C154.221 100.332 154.507 100.057 154.693 99.7129V97.7148H153.533C151.979 97.7148 151.152 98.252 151.052 99.3262L151.041 99.5088C151.041 99.8955 151.177 100.214 151.449 100.465C151.721 100.715 152.094 100.841 152.566 100.841ZM166.725 94.2881C166.302 94.2308 165.93 94.2021 165.607 94.2021C164.433 94.2021 163.663 94.5996 163.298 95.3945V103H160.193V91.377H163.126L163.212 92.7627C163.835 91.6956 164.698 91.1621 165.801 91.1621C166.145 91.1621 166.467 91.2087 166.768 91.3018L166.725 94.2881ZM167.562 97.1025C167.562 95.3193 167.985 93.8835 168.83 92.7949C169.682 91.7064 170.828 91.1621 172.268 91.1621C173.542 91.1621 174.534 91.599 175.243 92.4727L175.372 91.377H178.187V102.613C178.187 103.63 177.954 104.515 177.488 105.267C177.03 106.019 176.382 106.591 175.544 106.985C174.706 107.379 173.725 107.576 172.601 107.576C171.748 107.576 170.918 107.404 170.108 107.061C169.299 106.724 168.687 106.287 168.271 105.75L169.646 103.859C170.42 104.726 171.358 105.159 172.461 105.159C173.285 105.159 173.925 104.937 174.384 104.493C174.842 104.056 175.071 103.433 175.071 102.624V102.001C174.355 102.81 173.413 103.215 172.246 103.215C170.85 103.215 169.718 102.671 168.852 101.582C167.992 100.486 167.562 99.0361 167.562 97.2314V97.1025ZM170.667 97.3281C170.667 98.3809 170.878 99.208 171.301 99.8096C171.723 100.404 172.303 100.701 173.041 100.701C173.986 100.701 174.663 100.347 175.071 99.6377V94.75C174.656 94.041 173.986 93.6865 173.062 93.6865C172.318 93.6865 171.73 93.9909 171.301 94.5996C170.878 95.2083 170.667 96.1178 170.667 97.3281ZM187.317 103C187.174 102.721 187.07 102.373 187.006 101.958C186.254 102.796 185.276 103.215 184.073 103.215C182.935 103.215 181.989 102.885 181.237 102.227C180.493 101.568 180.12 100.737 180.12 99.7344C180.12 98.5026 180.575 97.5573 181.484 96.8984C182.401 96.2396 183.722 95.9066 185.448 95.8994H186.877V95.2334C186.877 94.6963 186.737 94.2666 186.458 93.9443C186.186 93.6221 185.753 93.4609 185.158 93.4609C184.635 93.4609 184.224 93.5863 183.923 93.8369C183.629 94.0876 183.482 94.4313 183.482 94.8682H180.378C180.378 94.195 180.586 93.5719 181.001 92.999C181.416 92.4261 182.004 91.9785 182.763 91.6562C183.522 91.3268 184.374 91.1621 185.319 91.1621C186.752 91.1621 187.887 91.5238 188.725 92.2471C189.57 92.9632 189.992 93.973 189.992 95.2764V100.314C189.999 101.417 190.153 102.252 190.454 102.817V103H187.317ZM184.75 100.841C185.208 100.841 185.631 100.741 186.018 100.54C186.404 100.332 186.691 100.057 186.877 99.7129V97.7148H185.717C184.163 97.7148 183.336 98.252 183.235 99.3262L183.225 99.5088C183.225 99.8955 183.361 100.214 183.633 100.465C183.905 100.715 184.277 100.841 184.75 100.841ZM198.908 94.2881C198.486 94.2308 198.113 94.2021 197.791 94.2021C196.617 94.2021 195.847 94.5996 195.481 95.3945V103H192.377V91.377H195.31L195.396 92.7627C196.019 91.6956 196.882 91.1621 197.984 91.1621C198.328 91.1621 198.65 91.2087 198.951 91.3018L198.908 94.2881ZM209.167 103H206.052V86.5H209.167V103ZM211.251 97.0811C211.251 95.9281 211.473 94.9004 211.917 93.998C212.361 93.0957 212.998 92.3975 213.829 91.9033C214.667 91.4092 215.637 91.1621 216.74 91.1621C218.309 91.1621 219.587 91.6419 220.575 92.6016C221.571 93.5612 222.126 94.8646 222.24 96.5117L222.262 97.3066C222.262 99.0898 221.764 100.522 220.769 101.604C219.773 102.678 218.438 103.215 216.762 103.215C215.086 103.215 213.747 102.678 212.744 101.604C211.749 100.529 211.251 99.0684 211.251 97.2207V97.0811ZM214.355 97.3066C214.355 98.4095 214.563 99.2546 214.979 99.8418C215.394 100.422 215.988 100.712 216.762 100.712C217.514 100.712 218.101 100.425 218.523 99.8525C218.946 99.2725 219.157 98.3486 219.157 97.0811C219.157 95.9997 218.946 95.1618 218.523 94.5674C218.101 93.973 217.507 93.6758 216.74 93.6758C215.981 93.6758 215.394 93.973 214.979 94.5674C214.563 95.1546 214.355 96.0677 214.355 97.3066ZM230.469 99.7881C230.469 99.4085 230.279 99.1113 229.899 98.8965C229.527 98.6745 228.925 98.4775 228.095 98.3057C225.33 97.7256 223.948 96.5511 223.948 94.7822C223.948 93.751 224.374 92.8916 225.227 92.2041C226.086 91.5094 227.207 91.1621 228.589 91.1621C230.064 91.1621 231.242 91.5094 232.123 92.2041C233.011 92.8988 233.455 93.8011 233.455 94.9111H230.351C230.351 94.4671 230.207 94.1019 229.921 93.8154C229.634 93.5218 229.187 93.375 228.578 93.375C228.055 93.375 227.651 93.4932 227.364 93.7295C227.078 93.9658 226.935 94.2666 226.935 94.6318C226.935 94.9756 227.096 95.2549 227.418 95.4697C227.747 95.6774 228.299 95.86 229.072 96.0176C229.846 96.168 230.497 96.3398 231.027 96.5332C232.667 97.1348 233.487 98.1768 233.487 99.6592C233.487 100.719 233.033 101.578 232.123 102.237C231.214 102.889 230.039 103.215 228.6 103.215C227.626 103.215 226.759 103.043 226 102.699C225.248 102.348 224.657 101.872 224.228 101.271C223.798 100.662 223.583 100.007 223.583 99.3047H226.526C226.555 99.8561 226.759 100.279 227.139 100.572C227.518 100.866 228.027 101.013 228.664 101.013C229.258 101.013 229.706 100.902 230.007 100.68C230.315 100.451 230.469 100.153 230.469 99.7881ZM247.71 103C247.567 102.721 247.463 102.373 247.398 101.958C246.646 102.796 245.669 103.215 244.466 103.215C243.327 103.215 242.382 102.885 241.63 102.227C240.885 101.568 240.513 100.737 240.513 99.7344C240.513 98.5026 240.967 97.5573 241.877 96.8984C242.794 96.2396 244.115 95.9066 245.841 95.8994H247.27V95.2334C247.27 94.6963 247.13 94.2666 246.851 93.9443C246.578 93.6221 246.145 93.4609 245.551 93.4609C245.028 93.4609 244.616 93.5863 244.315 93.8369C244.022 94.0876 243.875 94.4313 243.875 94.8682H240.771C240.771 94.195 240.978 93.5719 241.394 92.999C241.809 92.4261 242.396 91.9785 243.155 91.6562C243.914 91.3268 244.767 91.1621 245.712 91.1621C247.144 91.1621 248.279 91.5238 249.117 92.2471C249.962 92.9632 250.385 93.973 250.385 95.2764V100.314C250.392 101.417 250.546 102.252 250.847 102.817V103H247.71ZM245.143 100.841C245.601 100.841 246.023 100.741 246.41 100.54C246.797 100.332 247.083 100.057 247.27 99.7129V97.7148H246.109C244.555 97.7148 243.728 98.252 243.628 99.3262L243.617 99.5088C243.617 99.8955 243.753 100.214 244.025 100.465C244.298 100.715 244.67 100.841 245.143 100.841ZM259.301 94.2881C258.878 94.2308 258.506 94.2021 258.184 94.2021C257.009 94.2021 256.239 94.5996 255.874 95.3945V103H252.77V91.377H255.702L255.788 92.7627C256.411 91.6956 257.274 91.1621 258.377 91.1621C258.721 91.1621 259.043 91.2087 259.344 91.3018L259.301 94.2881ZM265.424 100.712C265.997 100.712 266.462 100.554 266.82 100.239C267.178 99.9242 267.365 99.5052 267.379 98.9824H270.29C270.283 99.7702 270.068 100.493 269.646 101.152C269.223 101.804 268.643 102.312 267.905 102.678C267.175 103.036 266.366 103.215 265.478 103.215C263.816 103.215 262.506 102.688 261.546 101.636C260.586 100.576 260.106 99.1149 260.106 97.2529V97.0488C260.106 95.2585 260.583 93.8298 261.535 92.7627C262.488 91.6956 263.795 91.1621 265.456 91.1621C266.91 91.1621 268.074 91.5775 268.947 92.4082C269.828 93.2318 270.276 94.3311 270.29 95.7061H267.379C267.365 95.1045 267.178 94.6175 266.82 94.2451C266.462 93.8656 265.99 93.6758 265.402 93.6758C264.679 93.6758 264.131 93.9408 263.759 94.4707C263.394 94.9935 263.211 95.8457 263.211 97.0273V97.3496C263.211 98.5456 263.394 99.4049 263.759 99.9277C264.124 100.451 264.679 100.712 265.424 100.712ZM275.092 92.6445C275.915 91.6562 276.95 91.1621 278.196 91.1621C280.717 91.1621 281.995 92.6266 282.031 95.5557V103H278.927V95.6416C278.927 94.9756 278.784 94.485 278.497 94.1699C278.211 93.8477 277.734 93.6865 277.068 93.6865C276.159 93.6865 275.5 94.0374 275.092 94.7393V103H271.987V86.5H275.092V92.6445ZM287.649 103H284.534V91.377H287.649V103ZM284.352 88.3691C284.352 87.9036 284.506 87.5205 284.813 87.2197C285.129 86.9189 285.555 86.7686 286.092 86.7686C286.622 86.7686 287.044 86.9189 287.359 87.2197C287.674 87.5205 287.832 87.9036 287.832 88.3691C287.832 88.8418 287.671 89.2285 287.349 89.5293C287.034 89.8301 286.615 89.9805 286.092 89.9805C285.569 89.9805 285.146 89.8301 284.824 89.5293C284.509 89.2285 284.352 88.8418 284.352 88.3691ZM294.567 99.208L296.727 91.377H299.971L296.05 103H293.085L289.164 91.377H292.408L294.567 99.208ZM300.69 97.0811C300.69 95.9281 300.912 94.9004 301.356 93.998C301.8 93.0957 302.438 92.3975 303.269 91.9033C304.106 91.4092 305.077 91.1621 306.18 91.1621C307.748 91.1621 309.026 91.6419 310.015 92.6016C311.01 93.5612 311.565 94.8646 311.68 96.5117L311.701 97.3066C311.701 99.0898 311.203 100.522 310.208 101.604C309.213 102.678 307.877 103.215 306.201 103.215C304.525 103.215 303.186 102.678 302.184 101.604C301.188 100.529 300.69 99.0684 300.69 97.2207V97.0811ZM303.795 97.3066C303.795 98.4095 304.003 99.2546 304.418 99.8418C304.833 100.422 305.428 100.712 306.201 100.712C306.953 100.712 307.54 100.425 307.963 99.8525C308.385 99.2725 308.597 98.3486 308.597 97.0811C308.597 95.9997 308.385 95.1618 307.963 94.5674C307.54 93.973 306.946 93.6758 306.18 93.6758C305.421 93.6758 304.833 93.973 304.418 94.5674C304.003 95.1546 303.795 96.0677 303.795 97.3066ZM319.908 99.7881C319.908 99.4085 319.718 99.1113 319.339 98.8965C318.966 98.6745 318.365 98.4775 317.534 98.3057C314.77 97.7256 313.388 96.5511 313.388 94.7822C313.388 93.751 313.814 92.8916 314.666 92.2041C315.525 91.5094 316.646 91.1621 318.028 91.1621C319.504 91.1621 320.682 91.5094 321.562 92.2041C322.451 92.8988 322.895 93.8011 322.895 94.9111H319.79C319.79 94.4671 319.647 94.1019 319.36 93.8154C319.074 93.5218 318.626 93.375 318.018 93.375C317.495 93.375 317.09 93.4932 316.804 93.7295C316.517 93.9658 316.374 94.2666 316.374 94.6318C316.374 94.9756 316.535 95.2549 316.857 95.4697C317.187 95.6774 317.738 95.86 318.512 96.0176C319.285 96.168 319.937 96.3398 320.467 96.5332C322.107 97.1348 322.927 98.1768 322.927 99.6592C322.927 100.719 322.472 101.578 321.562 102.237C320.653 102.889 319.479 103.215 318.039 103.215C317.065 103.215 316.199 103.043 315.439 102.699C314.688 102.348 314.097 101.872 313.667 101.271C313.237 100.662 313.022 100.007 313.022 99.3047H315.966C315.994 99.8561 316.199 100.279 316.578 100.572C316.958 100.866 317.466 101.013 318.104 101.013C318.698 101.013 319.146 100.902 319.446 100.68C319.754 100.451 319.908 100.153 319.908 99.7881Z" fill="black"/>
</g>
<defs>
<filter id="filter0_d_399:2" x="14.998" y="0.5" width="311.929" height="115.076" filterUnits="userSpaceOnUse" color-interpolation-filters="sRGB">
<feFlood flood-opacity="0" result="BackgroundImageFix"/>
<feColorMatrix in="SourceAlpha" type="matrix" values="0 0 0 0 0 0 0 0 0 0 0 0 0 0 0 0 0 0 127 0" result="hardAlpha"/>
<feOffset dy="4"/>
<feGaussianBlur stdDeviation="2"/>
<feComposite in2="hardAlpha" operator="out"/>
<feColorMatrix type="matrix" values="0 0 0 0 0 0 0 0 0 0 0 0 0 0 0 0 0 0 0.25 0"/>
<feBlend mode="normal" in2="BackgroundImageFix" result="effect1_dropShadow_399:2"/>
<feBlend mode="normal" in="SourceGraphic" in2="effect1_dropShadow_399:2" result="shape"/>
</filter>
</defs>
</svg>
