<svg width="182" height="370" viewBox="0 0 182 370" fill="none" xmlns="http://www.w3.org/2000/svg">
<path d="M180.643 177.282C180.643 177.172 180.539 177.061 180.435 176.95C178.876 175.29 159.12 145.63 159.12 145.63C159.12 145.63 158.08 142.31 156.416 137.993C156.936 137.219 157.352 136.444 157.664 135.559C157.768 135.227 157.872 134.784 157.872 134.452C157.872 134.341 157.976 134.231 157.976 134.12C158.288 132.57 158.288 131.021 157.872 129.582C157.768 129.914 157.664 130.357 157.456 130.689C157.04 129.361 156.52 128.143 155.896 127.037C153.297 122.278 149.553 118.183 146.746 113.535C142.587 106.23 140.923 97.7083 142.067 89.1865C142.067 89.6292 142.067 90.0718 142.067 90.5145C142.171 88.8544 142.379 87.1943 142.691 85.5342C143.107 83.6528 143.731 81.882 144.458 80.1112C146.954 74.0242 150.905 68.8226 153.401 62.7355C154.233 60.7434 154.856 58.5299 155.272 56.4271C156.104 52.7749 156.416 49.012 156.208 45.3598C156.208 46.2452 156.104 47.1306 156 48.016C155.688 39.0514 152.361 30.5296 146.434 23.9999C137.908 14.9246 125.742 11.3831 114.097 9.50164C109.21 8.8376 104.53 6.95615 100.475 3.96797C96.0042 0.869116 90.1814 0.0944093 84.9824 0.75845C78.9516 1.42249 73.3368 4.41067 69.1776 9.05895C63.6667 15.5887 61.2752 24.7745 54.7245 30.1975C50.7733 33.5177 45.8863 35.0672 41.3112 37.2807C36.7361 39.4941 32.473 42.8143 30.9133 47.6839V47.5733V47.7946L30.8093 48.016C29.2496 53.771 32.265 59.6367 33.7207 65.281C35.2804 71.2574 35.3844 77.4551 35.4884 83.5421C35.5924 91.0679 35.6963 98.483 35.5924 106.009C35.5924 108.997 35.4884 111.985 35.2804 114.863C32.7849 115.637 30.3934 116.633 28.1059 117.962C25.8183 119.622 17.0841 129.582 17.0841 129.582L0.0314941 198.864L0.239465 199.085L0.0314941 200.081L0.863346 199.86C3.25487 202.627 10.4294 210.484 18.2278 215.465L18.9557 229.078C18.9557 229.078 19.7875 242.69 31.6411 248.335C31.9531 253.094 32.7849 272.24 28.8337 279.877C26.1303 285.41 24.8825 291.608 25.1944 297.916C25.1944 297.916 26.5462 309.426 24.9865 315.513C24.0507 319.608 24.0507 323.814 24.7785 327.909C24.7785 327.909 24.7785 329.237 24.7785 331.561C24.7785 343.846 24.8825 383.135 24.7785 387.672C24.5706 392.985 24.7785 470.678 24.7785 470.678C24.7785 470.678 23.8427 509.524 20.7233 520.038C17.604 530.552 18.4358 565.414 18.4358 565.414C18.4358 565.414 16.4602 606.916 23.3228 615.106C23.3228 615.438 23.2189 615.881 23.2189 616.213C23.2189 616.434 23.2189 616.545 23.2189 616.766C23.1149 619.865 23.7387 623.296 26.2342 624.292C31.4332 626.395 38.2958 632.814 39.6475 634.585C40.9993 636.356 48.4858 641.004 58.3638 639.786C64.4985 639.012 70.7373 638.79 76.976 638.901C76.976 638.901 80.8233 638.126 79.5755 633.035C78.7437 629.826 75.7283 624.846 73.5447 621.636C73.9606 621.747 74.3766 621.857 74.6885 621.857L75.1044 621.968H75.4163C75.6243 621.968 75.7283 621.968 75.9362 621.968H76.1442C76.3522 621.968 76.5601 621.968 76.7681 621.968C79.3676 621.747 89.1416 626.506 90.8053 629.715C92.4689 632.925 98.7077 635.359 103.283 635.913C105.986 636.245 112.953 635.692 118.776 634.917C121.687 634.585 124.598 634.031 127.406 633.257C128.758 632.703 129.07 630.933 128.654 628.94C128.238 626.395 126.886 624.181 125.014 622.521C123.351 621.193 121.063 617.873 119.503 615.106L119.088 614.332C121.999 611.343 127.198 601.715 128.862 599.723C130.837 597.288 125.742 508.638 125.742 508.638V464.258L133.541 422.203L138.948 399.957L143.627 366.313C143.627 366.313 151.737 327.023 149.242 323.261C149.242 323.15 147.162 282.754 144.978 273.015C144.043 268.699 144.251 258.959 144.874 249.441C146.122 248.224 146.434 246.343 145.914 244.572C145.81 244.018 145.602 243.465 145.29 242.912C145.29 242.801 145.29 242.58 145.29 242.358C149.761 240.145 154.44 238.485 159.327 237.267C167.126 235.607 165.15 231.402 165.15 231.402C165.15 231.402 166.918 227.749 168.062 225.536C169.205 223.323 168.27 203.623 168.062 202.073C167.958 201.409 167.542 197.757 166.918 193.773C169.413 191.891 172.637 189.567 176.172 187.354C182.723 182.927 181.267 178.5 180.643 177.282ZM79.5755 457.95C79.5755 457.95 73.7527 473.776 76.0402 477.761C78.3278 481.745 75.6243 496.796 75.6243 496.796L73.6487 519.042C73.6487 519.042 68.2418 560.323 70.1134 570.062C71.6731 577.699 72.193 600.387 72.401 609.905C72.297 609.905 72.089 610.015 71.985 610.126L71.7771 610.237C72.7129 606.474 72.297 598.948 67.8259 583.786L67.41 521.034C67.41 521.034 66.6821 448.543 72.089 440.464C77.4959 432.385 79.3676 418.55 79.3676 418.55C79.3676 418.55 78.2238 438.361 77.3919 443.673C76.5601 448.986 79.5755 457.95 79.5755 457.95ZM68.7617 613.778C68.7617 613.889 68.6577 614 68.6577 614.11L68.3458 613.667C68.5537 613.778 68.6577 613.778 68.7617 613.778Z" fill="url(#paint0_linear)"/>
<path d="M144.043 370.075L139.468 403.831L134.165 426.187L126.47 468.575V513.397C126.47 513.397 131.461 602.6 129.486 605.035C127.51 607.47 120.336 621.304 118.36 620.529C116.385 619.754 100.788 616.877 95.7966 619.312C90.8056 621.746 73.961 619.754 73.961 619.754C73.961 619.754 73.5451 585.114 71.6735 575.374C69.8018 565.635 75.1048 524.022 75.1048 524.022L76.9764 501.666C76.9764 501.666 79.6799 486.614 77.3923 482.519C75.1048 478.424 80.8237 462.598 80.8237 462.598C80.8237 462.598 78.1202 453.634 78.952 448.321C79.7838 443.009 80.8237 423.088 80.8237 423.088C80.8237 423.088 78.952 436.922 73.6491 445.112C68.3462 453.302 68.97 526.125 68.97 526.125L69.386 589.208C78.952 622.632 69.386 619.312 69.386 619.312C69.386 619.312 33.0972 627.833 25.7147 620.972C18.3322 614.11 20.5158 570.394 20.5158 570.394C20.5158 570.394 19.7879 535.421 22.8033 524.797C25.8187 514.172 26.8585 475.104 26.8585 475.104C26.8585 475.104 26.6505 396.858 26.8585 391.657C26.9625 387.23 26.8585 347.609 26.8585 335.213C26.8585 332.889 26.8585 331.561 26.8585 331.561L31.2256 319.94L83.2152 312.968H108.066C108.066 312.968 145.499 322.375 149.346 326.359C149.45 326.47 149.45 326.47 149.554 326.581C152.049 330.565 144.043 370.075 144.043 370.075Z" fill="#FF8817"/>
<path d="M70.5295 10.8298C65.0186 17.3595 62.7311 26.5454 56.2844 32.0791C52.4371 35.3992 47.4462 36.9487 42.9751 39.2728C38.5039 41.597 34.0328 44.9171 32.6811 50.1188C31.2254 55.8738 34.0328 61.7395 35.5925 67.4945C37.1522 73.4709 37.2562 79.6686 37.3602 85.8663C37.4641 93.3921 37.5681 100.918 37.4641 108.444C37.2562 120.175 36.3204 132.46 30.4976 142.42C51.6053 149.614 74.1688 150.61 96.3163 151.496C100.579 151.828 104.843 151.717 109.106 151.163C112.745 150.389 116.384 149.393 120.024 148.286C127.094 146.294 134.373 145.298 141.755 145.298C144.979 145.298 148.202 145.519 151.321 144.634C154.441 143.748 157.352 141.424 158.184 138.215C158.912 135.227 157.872 132.128 156.416 129.472C153.817 124.602 150.177 120.618 147.37 115.859C141.651 105.677 140.819 93.1707 145.083 82.214C147.578 76.127 151.529 70.8147 153.921 64.7277C159.016 51.3362 156.208 36.174 146.954 25.66C138.532 16.4741 126.47 12.9326 115.033 11.0511C110.146 10.3871 105.57 8.50565 101.619 5.51747C97.2521 2.41862 91.4293 1.64391 86.3343 2.30795C80.0956 3.19334 74.5847 6.07082 70.5295 10.8298Z" fill="#3F3D56"/>
<g opacity="0.1">
<path opacity="0.1" d="M145.29 75.795C143.211 81.1073 142.275 86.973 142.691 92.728C142.899 88.633 143.835 84.5382 145.29 80.7753C147.682 74.6882 151.737 69.3759 154.128 63.2889C156.104 58.1979 156.936 52.6643 156.52 47.2413C156.312 51.1148 155.48 54.8777 154.128 58.4192C151.737 64.3956 147.786 69.7079 145.29 75.795Z" fill="black"/>
<path opacity="0.1" d="M37.6721 84.3168C37.7761 88.6331 37.7761 93.06 37.7761 97.3762C37.7761 91.3999 37.7761 85.4235 37.6721 79.4471C37.5681 73.2494 37.4641 67.0518 35.9044 61.0754C34.8646 57.3125 33.3049 53.4389 32.785 49.6761C31.8492 55.099 34.4487 60.6327 35.9044 66.0557C37.4641 71.8107 37.5681 78.1191 37.6721 84.3168Z" fill="black"/>
<path opacity="0.1" d="M151.425 138.215C148.306 139.1 145.083 138.879 141.859 138.879C134.581 138.879 127.302 139.764 120.232 141.756C116.696 142.974 113.057 143.859 109.314 144.634C105.051 145.187 100.788 145.298 96.5244 144.966C75.1047 144.08 53.373 143.084 32.8892 136.555C32.2653 137.993 31.5374 139.432 30.8096 140.76C51.9173 147.954 74.4808 148.95 96.6283 149.835C100.891 150.167 105.155 150.057 109.418 149.503C113.057 148.729 116.696 147.733 120.232 146.626C127.302 144.634 134.581 143.638 141.859 143.748C145.083 143.748 148.306 143.97 151.425 143.084C154.545 142.199 157.456 139.986 158.288 136.665C158.6 135.116 158.6 133.566 158.184 132.017C157.248 135.227 154.441 137.329 151.425 138.215Z" fill="black"/>
</g>
<path d="M120.647 125.155C119.92 127.037 116.592 142.863 115.864 144.523C115.137 146.183 110.873 172.191 110.561 173.63C110.25 175.069 82.9031 167.543 82.9031 167.543L66.4744 152.934L49.5258 134.894C49.5258 134.894 49.0059 118.736 61.4834 113.535C62.3152 113.203 63.147 112.871 64.0828 112.649C79.1598 108.776 77.7041 59.9687 77.7041 59.9687L108.69 74.2456C108.69 74.2456 102.971 102.799 103.179 108.222C103.179 110.104 104.635 111.21 106.402 111.874C109.106 112.76 112.017 112.981 114.825 112.871C114.721 112.981 121.479 123.274 120.647 125.155Z" fill="#FBBEBE"/>
<path d="M176.172 178.721L180.539 179.939C180.539 179.939 183.763 185.251 176.172 190.12C171.285 193.219 166.606 196.761 162.239 200.524L139.571 207.828L135.204 193.33L156.208 176.286L176.172 178.721Z" fill="#FF8817"/>
<path opacity="0.1" d="M176.172 178.721L180.539 179.939C180.539 179.939 183.763 185.251 176.172 190.12C171.285 193.219 166.606 196.761 162.239 200.524L139.571 207.828L135.204 193.33L156.208 176.286L176.172 178.721Z" fill="black"/>
<path d="M11.0535 192.777L2.21533 201.963C2.21533 201.963 18.1241 221.552 30.2897 222.769C42.4552 223.987 50.3576 207.939 50.3576 207.939L39.7517 190.231L11.0535 192.777Z" fill="#FF8817"/>
<path opacity="0.1" d="M11.0535 192.777L2.21533 201.963C2.21533 201.963 18.1241 221.552 30.2897 222.769C42.4552 223.987 50.3576 207.939 50.3576 207.939L39.7517 190.231L11.0535 192.777Z" fill="black"/>
<path opacity="0.1" d="M94.6529 91.9533C111.536 91.9533 125.223 77.3856 125.223 59.4153C125.223 41.4451 111.536 26.8774 94.6529 26.8774C77.7696 26.8774 64.083 41.4451 64.083 59.4153C64.083 77.3856 77.7696 91.9533 94.6529 91.9533Z" fill="black"/>
<path d="M94.6529 89.5185C111.536 89.5185 125.223 74.9508 125.223 56.9805C125.223 39.0103 111.536 24.4426 94.6529 24.4426C77.7696 24.4426 64.083 39.0103 64.083 56.9805C64.083 74.9508 77.7696 89.5185 94.6529 89.5185Z" fill="#FBBEBE"/>
<path opacity="0.1" d="M149.554 330.344C142.587 331.229 135.724 332.778 129.07 335.213C117.632 339.308 28.0021 335.324 26.7544 335.213C26.7544 332.889 26.7544 331.561 26.7544 331.561L31.1215 319.94L83.111 312.968H107.962C107.962 312.968 145.395 322.375 149.242 326.359C149.45 328.905 149.554 330.344 149.554 330.344Z" fill="black"/>
<path opacity="0.1" d="M120.647 125.155C119.92 127.037 116.592 142.863 115.864 144.523C115.137 146.183 110.873 172.191 110.562 173.63C110.25 175.069 82.9031 167.543 82.9031 167.543L66.4744 152.934L49.5258 134.894C49.5258 134.894 49.0059 118.736 61.4834 113.535L92.3652 151.385L106.298 111.985C109.002 112.87 111.913 113.092 114.721 112.981C114.721 112.981 121.479 123.274 120.647 125.155Z" fill="black"/>
<path d="M92.3653 152.602L60.7556 113.867C57.0124 111.321 52.2294 110.989 48.1742 112.871C41.1036 116.191 32.2654 118.736 29.9779 120.396C27.6903 122.056 19.0601 132.128 19.0601 132.128L44.7429 203.512L33.4092 250.548C33.4092 250.548 35.1768 274.564 30.7057 283.307C28.0022 288.952 26.7545 295.15 27.0664 301.458C27.0664 301.458 28.4182 313.079 26.8585 319.166C25.9227 323.261 25.9227 327.466 26.6505 331.561C26.6505 331.561 117.528 335.656 128.966 331.561C135.621 329.126 142.483 327.577 149.45 326.691C149.45 326.691 147.37 285.964 145.291 276.224C143.211 266.485 147.058 229.188 147.058 229.188L144.563 189.235L159.432 148.286C159.432 148.286 151.321 122.056 142.899 119.4C142.899 119.4 127.614 115.527 124.391 113.756C121.167 111.985 111.601 110.325 111.601 110.325L106.61 112.096L92.3653 152.602Z" fill="#FF8817"/>
<path opacity="0.1" d="M69.9054 183.148L136.452 188.018C138.116 188.128 139.364 189.678 139.26 191.449L132.085 303.339C131.981 305.11 130.525 306.438 128.862 306.327L62.3149 301.458C60.6513 301.347 59.4035 299.798 59.5075 298.027L66.6821 186.136C66.7861 184.366 68.2418 183.037 69.9054 183.148Z" fill="black"/>
<path d="M72.1933 180.713L138.74 185.583C140.404 185.694 141.651 187.243 141.547 189.014L134.373 300.904C134.269 302.675 132.813 304.003 131.149 303.893L64.6028 299.023C62.9391 298.912 61.6914 297.363 61.7954 295.592L68.9699 183.701C69.0739 181.931 70.5296 180.603 72.1933 180.713Z" fill="#3F3D56"/>
<path d="M73.3105 189.673L66.8066 291.479L130.088 296.059L136.592 194.253L73.3105 189.673Z" fill="white"/>
<path opacity="0.1" d="M79.2197 216.366L78.2104 231.713L129.971 235.569L130.981 220.223L79.2197 216.366Z" fill="black"/>
<path opacity="0.1" d="M120.829 280.638L120.321 288.588L128.516 289.181L129.024 281.231L120.829 280.638Z" fill="black"/>
<path opacity="0.1" d="M78.961 258.97L78.4531 266.92L120.468 269.961L120.976 262.011L78.961 258.97Z" fill="black"/>
<path d="M85.0577 187.37L84.2747 199.627L128.053 202.795L128.836 190.539L85.0577 187.37Z" fill="#3F3D56"/>
<path opacity="0.1" d="M85.0577 187.37L84.2747 199.627L128.053 202.795L128.836 190.539L85.0577 187.37Z" fill="black"/>
<path opacity="0.1" d="M96.2124 328.13C96.2124 328.13 95.7965 388.447 80.9275 422.977C80.9275 422.977 98.9159 377.38 98.9159 375.498C98.9159 373.617 108.898 354.47 106.194 348.826C103.491 343.182 96.2124 328.13 96.2124 328.13Z" fill="black"/>
<path opacity="0.1" d="M97.044 48.7907C96.5241 43.4784 97.6679 38.0554 100.475 33.6285C99.7475 42.925 105.57 51.2255 114.097 53.3283C113.369 52.6643 113.161 51.5575 113.473 50.6721C115.552 53.2176 117.216 56.3165 119.607 58.53C121.999 60.7434 125.638 62.1822 128.446 60.5221C132.293 58.3086 132.397 52.4429 131.357 47.9053C129.174 38.2767 124.806 29.3122 118.568 21.8971C115.448 17.3595 110.457 14.7033 105.154 14.5927C99.2276 14.15 93.0928 14.7033 87.7899 17.4701C84.7745 19.2409 82.071 21.233 79.4715 23.6679L64.9145 36.2846C63.5627 37.3913 62.315 38.7194 61.3792 40.2689C60.7553 41.5969 60.3394 42.925 60.2354 44.4745C59.5076 52.8856 63.2508 61.0754 70.0095 65.613C69.9055 58.9726 73.5448 52.7749 79.2636 50.1188C80.1994 50.8935 80.7193 52.1109 80.7193 53.3283L83.7347 47.4626C84.1506 46.3559 84.8785 45.4705 85.8143 44.8065C87.6859 43.6997 90.0774 45.0278 91.6371 46.5772C93.1968 48.1267 94.8605 50.1188 96.9401 50.3401L97.044 41.7076" fill="black"/>
<path d="M97.044 47.5733C96.4202 42.261 97.6679 36.8379 100.475 32.411C99.5395 41.2649 105.778 50.4508 114.097 52.1109C113.369 51.4468 113.161 50.3401 113.473 49.4547C115.552 52.0002 117.216 55.099 119.607 57.3125C121.999 59.526 125.638 60.9648 128.446 59.3047C132.293 57.0912 132.397 51.2255 131.357 46.6879C129.174 37.0593 124.806 28.0948 118.568 20.6797C116.592 18.1342 114.201 16.142 111.393 14.8139C109.418 14.0392 107.338 13.5966 105.154 13.4859C99.2276 13.0432 93.0928 13.4859 87.7899 16.3634C84.7745 18.1341 82.071 20.1263 79.4715 22.5611L64.9145 35.1778C63.5627 36.2846 62.315 37.6127 61.3792 39.1621C60.7553 40.4902 60.3394 41.8183 60.2354 43.3677C59.5076 51.7789 63.2508 59.9687 70.0095 64.5063C69.9055 57.8659 73.5448 51.6682 79.2636 49.012C80.1994 49.7867 80.7193 51.0042 80.7193 52.2216L83.7347 46.4665C84.1506 45.3598 84.8785 44.4744 85.8143 43.8104C87.6859 42.7037 90.0774 44.0317 91.6371 45.5812C93.1968 47.1306 94.8605 49.1227 96.9401 49.3441L97.044 40.7115" fill="#3F3D56"/>
<path d="M111.497 252.983C108.794 251.544 64.6029 258.849 64.6029 258.849C64.6029 258.849 57.3244 256.635 39.7519 253.536C22.1794 250.437 21.0357 232.176 21.0357 232.176L19.0601 195.543L24.9868 190.01L50.4617 207.718C50.4617 207.718 50.8776 216.682 50.4617 218.231C50.2538 219.338 49.5259 220.666 49.6299 221.552C49.6299 222.105 50.0458 222.437 50.4617 222.548C52.2294 222.99 75.7287 227.085 75.7287 227.085C75.7287 227.085 130.214 223.101 143.835 242.69C144.875 244.129 145.707 245.789 146.226 247.56C149.658 260.951 113.889 254.311 111.497 252.983Z" fill="#FBBEBE"/>
<path opacity="0.1" d="M146.226 247.671C144.147 248.667 142.899 249.331 142.899 249.331C142.899 249.331 123.351 248.777 112.433 244.461C101.515 240.145 88.1021 241.03 88.1021 241.03C88.1021 241.03 42.4553 232.619 49.5258 221.773C49.5258 222.326 49.9417 222.658 50.3577 222.769C52.1253 223.212 75.6246 227.307 75.6246 227.307C75.6246 227.307 130.11 223.322 143.731 242.912C144.875 244.24 145.707 245.9 146.226 247.671Z" fill="black"/>
<path d="M165.254 183.148C165.254 183.148 167.958 203.291 168.166 204.951C168.374 206.611 169.31 226.311 168.166 228.524C167.022 230.738 165.254 234.39 165.254 234.39C165.254 234.39 167.126 238.706 159.536 240.256C151.945 241.805 142.899 246.785 142.899 246.785C142.899 246.785 123.351 246.232 112.537 241.916C101.723 237.599 88.206 238.485 88.206 238.485C88.206 238.485 30.1856 227.86 55.1406 215.022C80.0956 202.184 97.5641 219.56 97.5641 219.56L125.326 217.789C125.326 217.789 135.62 211.038 138.532 211.702C140.507 211.923 142.587 211.591 144.459 210.706L144.667 189.346L165.254 183.148Z" fill="#FBBEBE"/>
<path opacity="0.1" d="M24.5708 133.677L19.0599 133.345L2.21533 203.069C2.21533 203.069 20.4117 198.2 28.2101 203.069C36.0085 207.939 50.3576 208.935 50.3576 208.935L45.0547 153.377L24.5708 133.677Z" fill="black"/>
<path d="M24.5708 132.46L19.0599 132.128L2.21533 201.852C2.21533 201.852 20.4117 196.982 28.2101 201.852C36.0085 206.722 50.3576 207.718 50.3576 207.718L45.0547 152.16L24.5708 132.46Z" fill="#FF8817"/>
<path opacity="0.1" d="M151.841 147.733L159.431 149.614C159.431 149.614 178.98 179.496 180.435 181.156C181.891 182.816 173.157 188.903 169.517 188.903C165.878 188.903 148.098 191.117 142.899 196.208C137.7 201.299 139.883 175.622 139.883 174.958C139.883 174.294 146.33 158.136 146.33 158.136L151.841 147.733Z" fill="black"/>
<path d="M151.841 146.515L159.431 148.286C159.431 148.286 178.98 178.168 180.435 179.828C181.891 181.488 173.157 187.575 169.517 187.575C165.878 187.575 148.098 189.789 142.899 194.879C137.7 199.97 139.883 174.294 139.883 173.63C139.883 172.966 146.33 156.808 146.33 156.808L151.841 146.515Z" fill="#FF8817"/>
<g opacity="0.1">
<path opacity="0.1" d="M100.372 32.5217C100.372 31.6363 100.372 30.8616 100.372 29.9762C98.812 32.5217 97.6682 35.3992 97.1483 38.2767V40.8222C97.1483 40.8222 97.1483 40.8222 97.1483 40.7115V41.2649C97.1483 43.0357 97.1483 44.8065 97.1483 46.6879H97.0444V47.5733C97.0444 47.2413 97.0444 47.0199 97.0444 46.6879C94.9648 46.3559 93.5091 44.4744 91.9494 43.0357C90.3897 41.5969 87.9982 40.1582 86.1266 41.2649C85.1908 41.9289 84.4629 42.8144 84.047 43.9211L80.9276 49.6761C80.9276 48.4587 80.4077 47.2413 79.4719 46.4666C73.753 49.1227 70.0098 55.3204 70.2177 61.9608C64.4989 58.0873 60.7556 51.5575 60.3397 44.3638C59.9238 52.4429 63.771 60.1901 70.2177 64.3957C70.1138 57.7553 73.753 51.5576 79.4719 48.9014C80.4077 49.6761 80.9276 50.8935 80.9276 52.1109L83.943 46.3559C84.3589 45.2491 85.0868 44.3638 86.0226 43.6997C87.8942 42.593 90.2857 43.9211 91.8454 45.4705C93.4051 47.0199 95.0688 49.012 97.1483 49.2334C97.1483 46.3559 97.1483 43.589 97.2523 40.7115C97.7722 37.834 98.916 34.9565 100.372 32.5217Z" fill="black"/>
<path opacity="0.1" d="M96.9403 43.589C96.9403 42.8143 97.0443 42.0396 97.1482 41.3755L97.2521 38.2767C96.9403 40.0475 96.8364 41.8182 96.9403 43.589Z" fill="black"/>
<path opacity="0.1" d="M128.446 56.8698C125.639 58.5299 121.999 57.0912 119.608 54.8777C117.216 52.6643 115.553 49.5654 113.473 47.0199C113.161 48.016 113.369 49.012 114.097 49.6761C113.889 49.6761 113.681 49.5654 113.473 49.5654C115.553 52.1109 117.216 55.0991 119.608 57.3125C121.999 59.526 125.639 60.9648 128.446 59.3047C131.253 57.6446 132.085 53.8817 131.877 50.2294C131.669 52.9963 130.63 55.5418 128.446 56.8698Z" fill="black"/>
<path opacity="0.1" d="M113.369 49.4548C106.298 47.352 101.099 40.8222 100.372 32.9644C99.7478 41.7076 105.987 50.3402 113.993 52.0003C113.369 51.4469 113.057 50.4508 113.369 49.4548Z" fill="black"/>
</g>
<defs>
<linearGradient id="paint0_linear" x1="90.6333" y1="639.747" x2="90.6333" y2="0.384492" gradientUnits="userSpaceOnUse">
<stop stop-color="#808080" stop-opacity="0.25"/>
<stop offset="0.54" stop-color="#808080" stop-opacity="0.12"/>
<stop offset="1" stop-color="#808080" stop-opacity="0.1"/>
</linearGradient>
</defs>
</svg>
