<svg width="216" height="615" viewBox="0 0 216 615" fill="none" xmlns="http://www.w3.org/2000/svg">
<g clip-path="url(#clip0)">
<path d="M213.22 220.14C213.22 220.14 209.28 219.59 209.28 213.85C209.28 208.11 206.46 197.39 206.46 197.39C206.46 197.34 204.02 178.72 200.65 175.76C197.28 172.8 192.95 155.42 192.95 155.42C192.95 155.42 192.21 145.99 190.7 143.96C189.19 141.93 187.15 136.96 184.14 129.87C181.13 122.78 168.58 117.87 168.58 117.87C168.58 117.87 145.89 104.71 139.46 100.47C138.875 100.119 138.328 99.7063 137.83 99.24C136.71 97.77 131.83 97.74 131.83 97.74C131.264 94.3393 130.876 90.9113 130.67 87.47C130.678 87.1093 130.662 86.7484 130.62 86.39C137.789 82.1511 143.19 75.4691 145.83 67.57C145.95 67.19 146.05 66.79 146.16 66.41C146.589 66.2679 146.984 66.0381 147.32 65.7351C147.656 65.4321 147.925 65.0625 148.11 64.65C148.69 63.36 148.7 61.85 149.42 60.65C150.26 59.23 151.86 58.47 153.12 57.4C156.3 54.7 157.12 50.15 156.97 46.01C156.87 42.66 156.33 39.28 156.54 35.95L156.6 35.11C156.66 34.61 156.73 34.11 156.82 33.63C157.31 31.15 158.38 28.81 158.98 26.35C159.58 23.89 159.64 21.12 158.24 19C156.19 15.89 151.92 15.27 148.17 15C143.92 14.64 140.12 15.11 137.4 11.58C136.126 9.7354 134.694 8.00551 133.12 6.40999C132.56 5.88999 127.12 2.56999 127.12 2.34999C121.811 -0.109099 115.792 -0.570678 110.17 1.04998C107.35 1.86998 104.69 3.20999 101.83 3.87999C95.66 5.33999 88.56 3.75999 83.32 7.28999C80.4 9.28999 78.65 12.47 77.01 15.57C75.68 18.12 74.32 20.67 72.95 23.22C70.74 27.41 68.49 31.67 67.56 36.31C67.3601 37.319 67.2397 38.3421 67.2 39.37V41C67.1888 41.3345 67.209 41.6692 67.26 42C67.32 42.31 67.31 42.41 67.34 42.62C67.37 42.83 67.42 43.3 67.48 43.62C67.54 43.94 67.66 44.5 67.78 44.94C67.78 45.13 67.9 45.31 67.96 45.49C68.06 45.83 68.18 46.16 68.31 46.49C68.38 46.66 68.45 46.84 68.53 47.01C68.6798 47.3532 68.8502 47.6871 69.04 48.01C69.12 48.15 69.18 48.28 69.26 48.41C69.5425 48.8728 69.8496 49.3201 70.18 49.75C72.32 52.42 75.47 54.12 77.8 56.62V57.74C77.9146 63.3242 79.3944 68.7955 82.1102 73.6762C84.826 78.557 88.6952 82.6987 93.38 85.74C93.38 86.12 93.43 86.51 93.45 86.89C93.6484 89.8582 93.6116 92.8375 93.34 95.8C92.9333 95.3198 92.4236 94.9374 91.8488 94.6812C91.2741 94.425 90.649 94.3015 90.02 94.32C89.5904 94.3015 89.1601 94.3384 88.74 94.43L88.65 94.36V94.45C86.45 94.99 83.74 97.28 81.15 103.79C81.15 103.79 73.27 112.67 67.27 112.3C61.27 111.93 46.08 121.54 46.08 121.54C46.08 121.54 31.26 131.16 28.08 140.96C26.3004 146.516 24.1694 151.954 21.7 157.24L3.37999 194.99L0 224.94C0 224.94 1.87 238.26 1.5 240.29C1.13 242.32 9.19 260.47 9.19 260.47C9.19 260.47 35.82 307.26 46.7 309.66L47.48 309.11C47.946 309.352 48.4396 309.536 48.95 309.66L51.19 308.08C51.3235 309.841 51.2665 311.611 51.02 313.36C49.52 317.98 51.58 348.13 54.2 354.04C56.82 359.95 55.89 437.44 55.89 437.44L55.52 444.28C55.5289 444.483 55.5591 444.684 55.61 444.88L55.52 446.47L55.79 446.61C56.0706 448.78 55.9792 450.981 55.52 453.12C54.58 456.12 54.2 464.6 54.2 464.6C54.2 464.6 46.71 512.48 50.26 522.1C53.81 531.72 56.83 542.26 56.83 542.26C56.83 542.26 60.58 554.26 57.01 556.26C53.44 558.26 43.29 561.75 45.38 566.75C47.28 571.37 54.49 583.75 55.56 585.56L55.47 586.56L54 602.49C54.2395 604.593 54.8099 606.645 55.69 608.57C57.3 612.04 60.43 615.64 66.38 615.25C67.38 615.18 68.54 615.06 69.66 614.91C80.55 613.45 93.96 608.59 93.96 608.59C93.2635 608.148 92.6252 607.621 92.06 607.02C91.5243 606.502 91.0998 605.88 90.8127 605.192C90.5255 604.504 90.3817 603.765 90.39 603.02C90.55 600.12 85.12 586.3 83.77 582.9C83.56 582.41 83.45 582.13 83.45 582.13C83.45 582.13 95.83 569.19 93.77 557.72C93.77 557.72 80.07 549.72 84.58 545.33C89.09 540.94 97.15 528.33 97.15 528.33C97.15 528.33 97.52 481.18 97.15 474.14C96.7641 469.254 96.9959 464.338 97.84 459.51C97.99 458.78 98.17 458.07 98.36 457.37C104.597 458.301 110.894 458.779 117.2 458.8C119.5 458.8 121.84 458.8 124.2 458.66C124.2 459.327 124.23 460.047 124.29 460.82C124.81 472.5 125.78 492.98 126.57 500.59C127.69 511.5 133.88 540.9 133.88 540.9C133.88 540.9 122.07 548.48 135.94 567.16C135.94 567.16 135.94 573.93 135.02 574.91C134.04 578.114 133.248 581.373 132.65 584.67C132.07 588.19 131.83 591.75 132.77 593.6C135.02 598.02 148.52 597.66 148.52 597.66L148.85 597.6C151.399 597.337 153.974 597.583 156.427 598.323C158.88 599.062 161.162 600.282 163.14 601.91C168.27 606.03 187.74 604.22 198.28 602.91C202.41 602.39 205.17 601.91 205.17 601.91C205.301 601.442 205.348 600.954 205.31 600.47C205.2 597.88 203.17 592.2 189.41 587.13C189.41 587.13 176.47 578.43 176.65 570.85H174.88C175.476 570.812 176.074 570.812 176.67 570.85C176.67 570.85 171.6 552.35 173.67 550.85C175.74 549.35 169.54 528.85 169.54 528.85C169.54 528.85 165.99 494.45 165.8 492.04C165.808 489.972 166.121 487.916 166.73 485.94L165.8 467.08C165.8 467.08 165.62 460.81 165.8 458.77C165.772 456.999 165.628 455.232 165.37 453.48C165.28 452.78 165.19 452.05 165.09 451.33C169.94 450.1 173.09 448.96 173.09 448.96L172.53 383.31C176.65 375.31 177.41 357.76 177.39 345.31C177.39 337.31 177.03 331.39 177.03 331.39L182.66 322.2C182.66 322.2 183.96 311.2 181.9 308.79C180.99 307.7 181.4 306.57 182.15 305.64C182.539 305.331 182.95 305.05 183.38 304.8C183.38 304.8 183.32 304.71 183.25 304.58C183.641 304.249 184.059 303.951 184.5 303.69C184.5 303.69 182.5 300.59 184.29 299.28C185.97 300.42 187.47 301.28 188.61 301.98C188.53 302.71 188.45 303.13 188.45 303.13L188.93 302.13L190.7 303.13C190.7 303.13 199.52 285.56 199.33 282.97C199.14 280.38 205.33 269.47 205.33 269.47C205.33 269.47 206.08 263.74 209.46 261.34C212.84 258.94 212.08 241.55 212.08 241.55C212.08 241.55 213.02 232.49 215.27 228.79C217.52 225.09 213.22 220.14 213.22 220.14ZM44.46 212.47L44.63 216.66L42.91 213.89L44.46 212.47Z" fill="url(#paint0_linear)"/>
<path d="M191.18 295.58L189.02 304.78C189.02 304.78 171.72 295.95 168.6 284.73C165.48 273.51 173.82 269.25 173.82 269.25L189.94 276.08L191.18 295.58Z" fill="white"/>
<path opacity="0.1" d="M191.18 295.58L189.02 304.78C189.02 304.78 171.72 295.95 168.6 284.73C165.48 273.51 173.82 269.25 173.82 269.25L189.94 276.08L191.18 295.58Z" fill="black"/>
<path d="M94.09 608.69C94.09 608.69 78.09 614.57 67.09 615.31C61.25 615.7 58.18 612.12 56.6 608.67C55.7386 606.751 55.1818 604.71 54.95 602.62L56.38 586.77L57.14 578.33L80.51 572.26L83.82 582.38L84.13 583.15C85.46 586.53 90.79 600.28 90.63 603.15C90.6184 603.893 90.7578 604.631 91.0397 605.318C91.3216 606.006 91.7401 606.629 92.27 607.15C92.8095 607.738 93.421 608.255 94.09 608.69Z" fill="white"/>
<path d="M203.38 600.63C203.419 601.111 203.372 601.595 203.24 602.06C203.24 602.06 169.02 607.77 162.02 602.06C160.047 600.391 157.746 599.154 155.266 598.427C152.786 597.7 150.182 597.5 147.62 597.84C147.62 597.84 134.38 598.2 132.17 593.84C131.25 592.01 131.49 588.46 132.06 584.96C132.643 581.681 133.417 578.439 134.38 575.25L134.91 574.83L138.06 572.3L174.94 571.21H175.22C175.04 578.75 187.74 587.4 187.74 587.4C201.23 592.4 203.22 598.05 203.38 600.63Z" fill="white"/>
<path opacity="0.1" d="M203.38 600.63C203.415 601.112 203.365 601.596 203.23 602.06C203.23 602.06 169.02 607.77 162.02 602.06C160.046 600.392 157.745 599.156 155.266 598.429C152.786 597.702 150.182 597.502 147.62 597.84C147.62 597.84 134.37 598.2 132.17 593.84C131.25 592 131.48 588.46 132.05 584.96C137.15 585.47 145.2 586.74 148.36 589.77C153.14 594.38 161.24 598.98 166.21 599.34C170.11 599.59 193.38 600.33 203.38 600.63Z" fill="black"/>
<path opacity="0.1" d="M94.09 608.69C94.09 608.69 78.09 614.57 67.09 615.31C61.25 615.7 58.18 612.12 56.61 608.66C60.68 610.03 66.33 611.47 69.3 610.15C72.82 608.59 85.3 607.58 92.3 607.15C92.8322 607.734 93.4333 608.251 94.09 608.69Z" fill="black"/>
<path d="M117.83 134.84C104.63 129.71 87.65 112.76 91.89 104.84C92.8297 102.841 93.3892 100.684 93.54 98.48C93.81 95.4875 93.8501 92.4787 93.66 89.48C93.3605 84.5692 92.7694 79.6806 91.89 74.84C91.89 74.84 133.1 75.77 130.7 81.84C130 83.62 129.89 86.71 130.08 90.17C130.27 93.63 130.77 97.54 131.29 100.85C132.01 105.39 132.73 108.85 132.73 108.85C132.73 108.85 130.21 112.38 128.73 112.57C127.25 112.76 136.77 142.15 117.83 134.84Z" fill="#CF6F80"/>
<path opacity="0.1" d="M84.1 583.15L83.79 583.49C71.47 568.59 56.57 587.16 56.57 587.16L56.35 586.77L57.11 578.33L80.48 572.26L83.79 582.38L84.1 583.15Z" fill="black"/>
<path opacity="0.1" d="M175.23 572.26C175.23 572.26 166.23 572.07 161.43 576.31C156.63 580.55 133.43 577.23 134.43 576.31C134.725 575.853 134.903 575.331 134.95 574.79L138.1 572.26L174.98 571.17C175.12 571.84 175.23 572.26 175.23 572.26Z" fill="black"/>
<path d="M99.43 455.25C98.7607 456.908 98.2518 458.625 97.91 460.38C97.0761 465.186 96.8443 470.077 97.22 474.94C97.59 481.94 97.22 528.85 97.22 528.85C97.22 528.85 89.31 541.36 84.9 545.77C80.49 550.18 93.9 558.1 93.9 558.1C95.9 569.5 83.78 582.38 83.78 582.38C71.46 567.48 56.56 586.06 56.56 586.06C56.56 586.06 48.46 572.06 46.44 567.06C44.42 562.06 54.35 558.6 57.84 556.57C61.33 554.54 57.67 542.57 57.67 542.57C57.67 542.57 54.72 532.08 51.22 522.47C47.72 512.86 55.08 465.26 55.08 465.26C55.08 465.26 55.46 456.8 56.37 453.85C56.8293 451.721 56.9207 449.53 56.64 447.37C56.58 446.64 56.51 446.03 56.46 445.62C56.41 445.21 56.37 445.02 56.37 445.02L56.51 444.78L61.51 435.46C61.51 435.46 101.83 449.38 99.43 455.25Z" fill="#FFB72D"/>
<path d="M175.23 571.16C175.23 571.16 166.23 570.97 161.43 575.16C156.63 579.35 133.43 576.08 134.43 575.16C135.43 574.24 135.35 567.43 135.35 567.43C121.74 548.85 133.35 541.31 133.35 541.31C133.35 541.31 127.27 512.06 126.17 501.21C125.4 493.63 124.45 473.21 123.94 461.63C123.72 456.63 123.59 453.19 123.59 453.19L134.71 450.95L136.14 450.66L162.96 445.28C162.96 445.28 163.7 450.28 164.2 454.37C164.45 456.116 164.59 457.876 164.62 459.64C164.44 461.64 164.62 467.9 164.62 467.9L165.53 486.67C164.938 488.639 164.632 490.684 164.62 492.74C164.8 495.13 168.29 529.35 168.29 529.35C168.29 529.35 174.36 549.77 172.29 551.24C170.22 552.71 175.23 571.16 175.23 571.16Z" fill="#FFB72D"/>
<path opacity="0.1" d="M130.7 81.84C130 83.62 129.89 86.71 130.08 90.17C124.554 93.4991 118.199 95.1996 111.749 95.0758C105.299 94.952 99.0144 93.0088 93.62 89.47C93.3205 84.5559 92.7295 79.664 91.85 74.82C91.85 74.82 133.1 75.75 130.7 81.84Z" fill="black"/>
<path d="M146.62 59.74C146.629 63.3436 146.062 66.9254 144.94 70.35C142.435 78.0236 137.297 84.5646 130.436 88.8167C123.574 93.0688 115.43 94.7584 107.443 93.5869C99.4566 92.4153 92.1411 88.458 86.7898 82.4143C81.4385 76.3707 78.396 68.6299 78.2 60.56V59.74C78.0447 55.1996 78.795 50.6737 80.4073 46.4264C82.0195 42.179 84.4613 38.2952 87.5903 35.0014C90.7193 31.7077 94.4728 29.07 98.6319 27.2421C102.791 25.4143 107.273 24.4329 111.815 24.3552C116.357 24.2775 120.87 25.1051 125.089 26.7897C129.308 28.4743 133.15 30.9821 136.389 34.167C139.629 37.3518 142.202 41.1499 143.959 45.3396C145.715 49.5294 146.62 54.0269 146.62 58.57C146.62 58.9633 146.62 59.3533 146.62 59.74Z" fill="#CF6F80"/>
<path opacity="0.1" d="M117.83 134.84C104.63 129.71 87.65 112.76 91.89 104.84C92.8297 102.841 93.3892 100.684 93.54 98.48L111.62 113.33L122.79 122.47L131.29 100.83C132.01 105.37 132.73 108.83 132.73 108.83C132.73 108.83 130.21 112.36 128.73 112.55C127.25 112.74 136.77 142.15 117.83 134.84Z" fill="black"/>
<path d="M164.56 200.47L149.47 453.97L129.79 455.26L78.83 308.27L87.19 133.76L88.95 96.89L111.61 115.5L122.8 124.67L131.55 102.4L147.82 116.58L164.56 200.47Z" fill="#FFB72D"/>
<path opacity="0.1" d="M99.43 455.25C98.7607 456.908 98.2518 458.625 97.91 460.38C83.5788 458.164 69.6608 453.813 56.62 447.47L56.35 447.33L56.44 445.72V444.88L61.44 435.56C61.44 435.56 101.83 449.38 99.43 455.25Z" fill="black"/>
<path opacity="0.1" d="M134.94 460.47C131.279 461.09 127.587 461.511 123.88 461.73C123.66 456.73 123.53 453.29 123.53 453.29L134.62 451L134.94 460.47Z" fill="black"/>
<path opacity="0.1" d="M164.14 454.47C157.03 456.32 146.05 458.4 136.22 457.1L136.08 450.76L162.9 445.38C162.9 445.38 163.62 450.28 164.14 454.47Z" fill="black"/>
<path opacity="0.1" d="M136.04 458.21C95.04 465.21 57.49 445.14 57.49 445.14L57.85 438.34C57.85 438.34 58.78 361.25 56.2 355.34C53.62 349.43 51.62 319.47 53.07 314.86C54.52 310.25 47.74 241.28 47.74 241.28L46.64 213.28L6.37999 196.97L24.38 159.45C26.8101 154.189 28.901 148.778 30.64 143.25C33.77 133.51 48.3 123.94 48.3 123.94C48.3 123.94 63.2 114.38 69.09 114.74C74.98 115.1 82.7 106.28 82.7 106.28C88.4 91.75 93.56 98.33 93.56 98.33C93.5267 99.0532 93.433 99.7724 93.28 100.48C91.28 116.43 125.62 166.83 126.11 167.72L129.38 247.38L132.69 348.19L136.04 458.21Z" fill="black"/>
<path d="M134.94 458.21C93.94 465.21 56.38 445.14 56.38 445.14L56.75 438.34C56.75 438.34 57.68 361.25 55.09 355.34C52.5 349.43 50.5 319.46 51.97 314.86C53.44 310.26 46.62 241.28 46.62 241.28L45.51 213.28L5.23 196.91L23.23 159.39C25.6601 154.129 27.751 148.718 29.49 143.19C32.61 133.45 47.15 123.88 47.15 123.88C47.15 123.88 62.05 114.32 67.93 114.68C73.81 115.04 81.54 106.22 81.54 106.22C87.25 91.69 93.54 98.27 93.54 98.27C93.54 98.96 92.94 99.27 93.26 100.42C97.66 115.89 124.5 166.77 124.99 167.66L128.3 247.32L131.62 348.13L134.94 458.21Z" fill="white"/>
<path opacity="0.1" d="M123.89 169.93C119.48 168.09 96.12 141.47 96.12 141.47V135.4C95.27 133.4 90.22 134.62 86.12 136.02L87.88 99.15L89.88 100.81C94.26 116.22 123.38 169.04 123.89 169.93Z" fill="black"/>
<path d="M125 167.72C120.58 165.88 97.22 139.21 97.22 139.21V133.14C96.37 131.14 91.32 132.36 87.22 133.76L88.99 96.89L90.99 98.55C95.38 114.01 124.51 166.84 125 167.72Z" fill="white"/>
<path opacity="0.1" d="M57.49 300.73C58.04 300.73 86 297.79 86 297.79C86 297.79 102.93 331.08 101.82 339.18C100.71 347.28 98.7 354.45 91.89 353.18C85.08 351.91 55.24 354.18 55.24 354.18L57.49 300.73Z" fill="black"/>
<path d="M56.38 298.52C56.93 298.52 84.89 295.58 84.89 295.58C84.89 295.58 101.81 328.88 100.71 336.97C99.61 345.06 97.58 352.24 90.78 350.97C83.98 349.7 54.13 351.97 54.13 351.97L56.38 298.52Z" fill="white"/>
<path d="M77.45 282.89C77.45 282.89 103.11 296.68 103.66 300.89C104.21 305.1 90.6 299.05 87.66 298.32C85.7249 297.854 83.7551 297.546 81.77 297.4L62.16 297.93L77.45 282.89Z" fill="#CF6F80"/>
<path opacity="0.1" d="M116.73 171.65C118.221 171.65 119.43 170.441 119.43 168.95C119.43 167.459 118.221 166.25 116.73 166.25C115.239 166.25 114.03 167.459 114.03 168.95C114.03 170.441 115.239 171.65 116.73 171.65Z" fill="black"/>
<path d="M116.73 170.55C118.221 170.55 119.43 169.341 119.43 167.85C119.43 166.359 118.221 165.15 116.73 165.15C115.239 165.15 114.03 166.359 114.03 167.85C114.03 169.341 115.239 170.55 116.73 170.55Z" fill="#3F3D56"/>
<path opacity="0.1" d="M121.7 288.53C123.191 288.53 124.4 287.321 124.4 285.83C124.4 284.339 123.191 283.13 121.7 283.13C120.209 283.13 119 284.339 119 285.83C119 287.321 120.209 288.53 121.7 288.53Z" fill="black"/>
<path d="M121.7 287.42C123.191 287.42 124.4 286.211 124.4 284.72C124.4 283.229 123.191 282.02 121.7 282.02C120.209 282.02 119 283.229 119 284.72C119 286.211 120.209 287.42 121.7 287.42Z" fill="#3F3D56"/>
<path opacity="0.1" d="M119.42 230.09C120.911 230.09 122.12 228.881 122.12 227.39C122.12 225.899 120.911 224.69 119.42 224.69C117.929 224.69 116.72 225.899 116.72 227.39C116.72 228.881 117.929 230.09 119.42 230.09Z" fill="black"/>
<path d="M119.42 228.99C120.911 228.99 122.12 227.781 122.12 226.29C122.12 224.799 120.911 223.59 119.42 223.59C117.929 223.59 116.72 224.799 116.72 226.29C116.72 227.781 117.929 228.99 119.42 228.99Z" fill="#3F3D56"/>
<path d="M181.62 296.84C181.62 296.84 183.46 299.6 181.62 300.89C179.78 302.18 181.8 305.3 181.8 305.3C181.8 305.3 177.21 307.99 179.23 310.41C181.25 312.83 179.97 323.76 179.97 323.76L174.45 332.9C174.45 332.9 174.78 338.79 174.8 346.75C174.8 359.17 174.07 376.63 170.03 384.59L170.59 449.9C170.59 449.9 151.26 456.96 135.08 454.81L132.68 350.01C132.68 350.01 136.18 290.58 137.47 279.18C138.221 273.261 138.529 267.295 138.39 261.33C138.39 261.33 137.84 243.49 135.99 235.21C135.99 235.21 133.99 199.34 133.79 189.41C133.7 184.66 133.95 170.8 134.23 157.62C134.54 143.21 134.89 129.62 134.89 129.62L131.24 100.74C131.24 100.74 134.89 100.37 135.99 101.84C136.483 102.3 137.019 102.712 137.59 103.07C143.89 107.33 166.15 120.43 166.15 120.43C166.15 120.43 178.47 125.33 181.42 132.35C184.37 139.37 186.42 144.35 187.85 146.35C189.28 148.35 190.06 157.75 190.06 157.75C190.06 157.75 194.3 175.05 197.61 177.98C200.92 180.91 203.34 199.55 203.34 199.55L174.09 222.55C174.09 222.55 171.52 260.81 170.97 262.29C170.42 263.77 181.62 296.84 181.62 296.84Z" fill="white"/>
<path d="M182.77 296.84C182.77 296.84 184.6 299.6 182.77 300.89C180.94 302.18 182.94 305.3 182.94 305.3C182.94 305.3 178.38 308.02 180.38 310.44C182.38 312.86 181.12 323.79 181.12 323.79L175.62 332.93C175.62 332.93 175.95 338.82 175.98 346.78C175.98 359.2 175.25 376.66 171.21 384.62L171.76 449.93C171.76 449.93 152.4 456.99 136.24 454.84L133.85 350.04C133.85 350.04 137.35 290.61 138.64 279.21C139.398 273.292 139.702 267.325 139.55 261.36C139.55 261.36 139 243.52 137.16 235.24C137.16 235.24 135.16 199.37 134.95 189.44C134.86 184.69 135.12 170.83 135.39 157.65C135.7 143.24 136.05 129.65 136.05 129.65L131.23 100.38C131.23 100.38 136.05 100.38 137.16 101.87C137.646 102.338 138.183 102.751 138.76 103.1C145.06 107.36 167.33 120.46 167.33 120.46C167.33 120.46 179.62 125.36 182.62 132.38C185.62 139.4 187.62 144.38 189.06 146.38C190.5 148.38 191.26 157.78 191.26 157.78C191.26 157.78 195.5 175.08 198.81 178.01C202.12 180.94 204.51 199.54 204.51 199.54L175.26 222.54C175.26 222.54 172.69 260.8 172.13 262.28C171.57 263.76 182.77 296.84 182.77 296.84Z" fill="white"/>
<path opacity="0.1" d="M147.74 138.14L150.38 145.84L136.48 159.84C136.79 145.44 137.14 131.84 137.14 131.84L132.32 102.57C132.32 102.57 137.14 102.57 138.25 104.06C138.739 104.522 139.275 104.931 139.85 105.28L151.67 139.38L147.74 138.14Z" fill="black"/>
<path d="M146.62 135.93L149.27 143.63L135.37 157.63C135.68 143.22 136.03 129.63 136.03 129.63L131.2 100.36C131.2 100.36 136.03 100.36 137.13 101.85C137.623 102.31 138.159 102.722 138.73 103.08L150.62 137.17L146.62 135.93Z" fill="white"/>
<path opacity="0.1" d="M146.62 59.74C146.629 63.3436 146.062 66.9254 144.94 70.35C144.751 70.3789 144.558 70.3699 144.373 70.3236C144.187 70.2772 144.013 70.1944 143.86 70.08C143.6 61.08 139.17 52.63 133.72 45.44C132.187 43.2712 130.333 41.349 128.22 39.74C126.083 38.1324 123.423 37.38 120.76 37.63C117.76 38.04 115.11 40.08 112.08 40.34C108.08 40.67 104.5 37.9 100.53 37.76C98.9162 37.776 97.3243 38.1356 95.8604 38.815C94.3964 39.4944 93.0941 40.4779 92.04 41.7C89.9512 44.1651 88.4013 47.0401 87.49 50.14C85.9186 54.8386 85.0623 59.7468 84.95 64.7C84.95 67.5 84.63 71.01 82.03 72.03C82.227 69.9707 81.9935 67.8929 81.3445 65.9287C80.6955 63.9644 79.6451 62.1566 78.26 60.62L78.2 60.56V59.74C78.0447 55.1996 78.795 50.6737 80.4073 46.4264C82.0195 42.179 84.4613 38.2952 87.5903 35.0014C90.7193 31.7077 94.4728 29.07 98.6319 27.2421C102.791 25.4143 107.273 24.4329 111.815 24.3552C116.357 24.2775 120.87 25.1051 125.089 26.7897C129.308 28.4743 133.15 30.9821 136.389 34.167C139.629 37.3518 142.202 41.1499 143.959 45.3396C145.715 49.5294 146.62 54.0269 146.62 58.57C146.62 58.9633 146.62 59.3533 146.62 59.74Z" fill="black"/>
<path d="M126.62 5.40998C121.423 2.96652 115.513 2.50424 110 4.10998C107.23 4.92998 104.62 6.25999 101.81 6.92999C95.81 8.37999 88.81 6.80999 83.66 10.32C80.8 12.32 79.08 15.48 77.48 18.55L73.48 26.17C71.3 30.34 69.1 34.58 68.19 39.17C67.28 43.76 67.83 48.9 70.74 52.59C72.86 55.28 75.99 56.97 78.29 59.5C79.6679 61.0389 80.7131 62.8458 81.3601 64.8075C82.0071 66.7691 82.242 68.8433 82.05 70.9C84.66 69.9 84.91 66.38 84.97 63.58C85.0823 58.6268 85.9386 53.7186 87.51 49.02C88.4213 45.9201 89.9712 43.0451 92.06 40.58C93.1141 39.3579 94.4164 38.3743 95.8804 37.695C97.3443 37.0156 98.9362 36.6559 100.55 36.64C104.55 36.78 108.14 39.54 112.1 39.21C115.1 38.96 117.76 36.91 120.78 36.51C123.443 36.26 126.103 37.0124 128.24 38.62C130.354 40.2239 132.206 42.1469 133.73 44.32C139.19 51.51 143.62 59.94 143.88 68.96C145.01 69.79 146.64 68.71 147.2 67.43C147.76 66.15 147.78 64.65 148.49 63.43C149.31 62.02 150.88 61.27 152.11 60.21C155.23 57.52 156.01 52.99 155.89 48.88C155.77 44.77 154.97 40.6 155.75 36.56C156.22 34.08 157.28 31.76 157.86 29.31C158.44 26.86 158.51 24.11 157.14 22C155.14 18.9 150.93 18.29 147.26 18C143.09 17.64 139.36 18.1 136.7 14.59C135.451 12.7583 134.046 11.0385 132.5 9.44998C131.94 8.92998 126.62 5.62998 126.62 5.40998Z" fill="#512E4E"/>
<path opacity="0.1" d="M17.9 216.29L7.45 196.97L4.14 226.78C4.14 226.78 5.98 240.02 5.61 242.05C5.24 244.08 13.15 262.28 13.15 262.28C13.15 262.28 39.28 308.82 49.95 311.22L86 285.47L76.44 273.33C76.44 273.33 73.13 272.04 72.3 273.33C72.3 273.33 54.55 242.79 52.71 240.58C50.87 238.37 51.23 233.96 51.23 233.96C51.23 233.96 48.47 231.02 49.39 228.26C50.31 225.5 44.06 215.93 44.06 215.93L49.76 210.6L17.9 216.29Z" fill="black"/>
<path d="M8 194.77L5.23999 196.97L1.92999 226.78C1.92999 226.78 3.76999 240.02 3.39999 242.05C3.02999 244.08 10.95 262.28 10.95 262.28C10.95 262.28 37.07 308.82 47.74 311.22L83.8 285.47L74.23 273.33C74.23 273.33 70.92 272.04 70.09 273.33C70.09 273.33 52.34 242.79 50.5 240.58C48.66 238.37 49.03 233.96 49.03 233.96C49.03 233.96 46.27 231.02 47.19 228.26C48.11 225.5 41.85 215.93 41.85 215.93L47.55 210.6L8 194.77Z" fill="white"/>
<path opacity="0.1" d="M179.27 311.55C181.27 313.98 180.01 324.89 180.01 324.89L174.49 334.03C174.49 334.03 174.82 339.93 174.84 347.88L165.56 350.78C164.165 351.215 162.654 351.078 161.36 350.399C160.066 349.72 159.095 348.555 158.66 347.16C158.472 346.576 158.388 345.963 158.41 345.35L160.01 293.74L181.62 302.02C179.78 303.3 181.8 306.44 181.8 306.44C181.8 306.44 177.25 309.12 179.27 311.55Z" fill="black"/>
<path d="M180.38 310.47C182.38 312.9 181.12 323.82 181.12 323.82L175.62 332.93C175.62 332.93 175.95 338.82 175.98 346.78L166.53 349.73C165.163 350.153 163.684 350.016 162.417 349.351C161.15 348.686 160.198 347.545 159.77 346.18C159.591 345.608 159.51 345.009 159.53 344.41L161.14 292.64L182.8 300.92C180.95 302.2 182.97 305.33 182.97 305.33C182.97 305.33 178.38 308.02 180.38 310.47Z" fill="white"/>
<path d="M187.55 285.84C187.55 285.84 186.08 295.23 182.4 295.78C178.72 296.33 177.07 310.97 173.4 310.45C169.73 309.93 172.16 296.84 172.29 294.3C172.42 291.76 168.29 281.24 171.38 278.85C174.47 276.46 184.25 278.85 184.25 278.85L187.55 285.84Z" fill="#CF6F80"/>
<path opacity="0.1" d="M195.38 213.53L202.32 199.53C202.32 199.53 205.08 210.2 205.08 215.9C205.08 221.6 208.94 222.16 208.94 222.16C208.94 222.16 213.17 227.16 210.94 230.8C208.71 234.44 207.81 243.5 207.81 243.5C207.81 243.5 208.54 260.79 205.23 263.18C201.92 265.57 201.23 271.28 201.23 271.28C201.23 271.28 195.15 282.13 195.34 284.71C195.53 287.29 186.88 304.76 186.88 304.76C186.88 304.76 191.11 283.05 166.46 273.67C166.46 273.67 166.27 266.3 168.11 264.28C169.95 262.26 172.82 261.34 171.02 251.13C169.22 240.92 170.5 228.72 170.5 226.27C170.5 223.82 176.02 208.54 176.02 208.54L195.38 213.53Z" fill="black"/>
<path d="M198.38 197.53L204.44 199.53C204.44 199.53 207.21 210.2 207.21 215.9C207.21 221.6 211.07 222.16 211.07 222.16C211.07 222.16 215.3 227.16 213.07 230.8C210.84 234.44 209.95 243.5 209.95 243.5C209.95 243.5 210.68 260.79 207.37 263.18C204.06 265.57 203.32 271.28 203.32 271.28C203.32 271.28 197.25 282.13 197.44 284.71C197.63 287.29 188.97 304.76 188.97 304.76C188.97 304.76 193.21 283.05 168.55 273.67C168.55 273.67 168.37 266.3 170.21 264.28C172.05 262.26 174.92 261.34 173.12 251.13C171.32 240.92 172.62 228.72 172.62 226.27C172.62 223.82 178.14 208.54 178.14 208.54L198.38 197.53Z" fill="white"/>
<path opacity="0.1" d="M64.53 560.4C64.53 560.4 74.19 554.33 80.53 558.74C86.87 563.15 64.53 560.4 64.53 560.4Z" fill="black"/>
<path opacity="0.1" d="M139.62 541.63C139.62 541.63 148.17 540.53 155.35 548.26C162.53 555.99 139.62 541.63 139.62 541.63Z" fill="black"/>
<g opacity="0.1">
<path opacity="0.1" d="M152.1 58.02C150.87 59.08 149.29 59.84 148.47 61.25C147.77 62.46 147.75 63.95 147.19 65.25C146.63 66.55 145 67.61 143.87 66.79C143.61 57.79 139.17 49.34 133.72 42.14C132.197 39.9669 130.344 38.0439 128.23 36.44C126.09 34.8309 123.426 34.0784 120.76 34.33C117.76 34.74 115.12 36.78 112.09 37.03C108.09 37.37 104.5 34.6 100.53 34.46C98.9164 34.4748 97.3248 34.8349 95.8621 35.5163C94.3993 36.1976 93.0995 37.1843 92.05 38.41C89.9585 40.8695 88.4082 43.7418 87.5 46.84C85.9286 51.5386 85.0723 56.4468 84.96 61.4C84.9 64.19 84.64 67.67 82.06 68.71C82.12 69.4488 82.12 70.1912 82.06 70.93C84.66 69.93 84.92 66.41 84.98 63.61C85.0923 58.6568 85.9486 53.7486 87.52 49.05C88.4313 45.9501 89.9812 43.0751 92.07 40.61C93.1221 39.3881 94.4227 38.4047 95.885 37.7253C97.3473 37.0459 98.9376 36.6861 100.55 36.67C104.55 36.81 108.15 39.57 112.11 39.24C115.11 38.99 117.77 36.94 120.78 36.54C123.446 36.2884 126.11 37.0408 128.25 38.65C130.364 40.2539 132.217 42.1769 133.74 44.35C139.19 51.54 143.63 59.97 143.89 68.99C145.02 69.82 146.65 68.74 147.21 67.46C147.77 66.18 147.79 64.68 148.49 63.46C149.31 62.05 150.89 61.3 152.12 60.24C155.24 57.55 156.02 53.02 155.9 48.91V48.53C155.71 52.09 154.76 55.72 152.1 58.02Z" fill="black"/>
<path opacity="0.1" d="M78.28 57.31C75.98 54.78 72.84 53.09 70.73 50.41C68.9522 48.0381 67.9373 45.1819 67.82 42.22C67.508 45.9207 68.5412 49.6097 70.73 52.61C72.84 55.3 75.98 56.99 78.28 59.52C80.4883 61.9948 81.8141 65.1316 82.05 68.44C82.2031 66.4266 81.9481 64.403 81.3003 62.4904C80.6525 60.5779 79.6252 58.8159 78.28 57.31Z" fill="black"/>
<path opacity="0.1" d="M157.85 27.12C157.26 29.57 156.21 31.9 155.73 34.37C155.447 36.0207 155.343 37.697 155.42 39.37C155.453 38.417 155.557 37.4678 155.73 36.53C156.21 34.05 157.26 31.73 157.85 29.28C158.194 27.9287 158.306 26.5287 158.18 25.14C158.12 25.8074 158.01 26.4693 157.85 27.12Z" fill="black"/>
</g>
</g>
<defs>
<linearGradient id="paint0_linear" x1="107.96" y1="615.32" x2="107.96" y2="-1.35563e-06" gradientUnits="userSpaceOnUse">
<stop stop-color="#808080" stop-opacity="0.25"/>
<stop offset="0.54" stop-color="#808080" stop-opacity="0.12"/>
<stop offset="1" stop-color="#808080" stop-opacity="0.1"/>
</linearGradient>
<clipPath id="clip0">
<rect width="216" height="615" fill="white"/>
</clipPath>
</defs>
</svg>
