<svg width="289" height="130" viewBox="0 0 289 130" fill="none" xmlns="http://www.w3.org/2000/svg">
<rect x="109" y="44" width="71" height="6" fill="black"/>
<path d="M146.768 1.23223C145.791 0.255924 144.209 0.255924 143.232 1.23223L127.322 17.1421C126.346 18.1184 126.346 19.7014 127.322 20.6777C128.299 21.654 129.882 21.654 130.858 20.6777L145 6.53553L159.142 20.6777C160.118 21.654 161.701 21.654 162.678 20.6777C163.654 19.7014 163.654 18.1184 162.678 17.1421L146.768 1.23223ZM147.5 44V3H142.5V44H147.5Z" fill="black"/>
<path d="M10.5664 99.7773H4.91602L3.8418 103H0.415039L6.2373 87.3594H9.22363L15.0781 103H11.6514L10.5664 99.7773ZM5.78613 97.167H9.69629L7.73047 91.3125L5.78613 97.167ZM22.8662 94.2881C22.4437 94.2308 22.0713 94.2021 21.749 94.2021C20.5745 94.2021 19.8047 94.5996 19.4395 95.3945V103H16.335V91.377H19.2676L19.3535 92.7627C19.9766 91.6956 20.8395 91.1621 21.9424 91.1621C22.2861 91.1621 22.6084 91.2087 22.9092 91.3018L22.8662 94.2881ZM30.9014 94.2881C30.4788 94.2308 30.1064 94.2021 29.7842 94.2021C28.6097 94.2021 27.8398 94.5996 27.4746 95.3945V103H24.3701V91.377H27.3027L27.3887 92.7627C28.0117 91.6956 28.8747 91.1621 29.9775 91.1621C30.3213 91.1621 30.6436 91.2087 30.9443 91.3018L30.9014 94.2881ZM38.8184 103C38.6751 102.721 38.5713 102.373 38.5068 101.958C37.7549 102.796 36.7773 103.215 35.5742 103.215C34.4355 103.215 33.4902 102.885 32.7383 102.227C31.9935 101.568 31.6211 100.737 31.6211 99.7344C31.6211 98.5026 32.0758 97.5573 32.9854 96.8984C33.902 96.2396 35.2233 95.9066 36.9492 95.8994H38.3779V95.2334C38.3779 94.6963 38.2383 94.2666 37.959 93.9443C37.6868 93.6221 37.2536 93.4609 36.6592 93.4609C36.1364 93.4609 35.7246 93.5863 35.4238 93.8369C35.1302 94.0876 34.9834 94.4313 34.9834 94.8682H31.8789C31.8789 94.195 32.0866 93.5719 32.502 92.999C32.9173 92.4261 33.5046 91.9785 34.2637 91.6562C35.0228 91.3268 35.875 91.1621 36.8203 91.1621C38.2526 91.1621 39.3877 91.5238 40.2256 92.2471C41.0706 92.9632 41.4932 93.973 41.4932 95.2764V100.314C41.5003 101.417 41.6543 102.252 41.9551 102.817V103H38.8184ZM36.251 100.841C36.7093 100.841 37.1318 100.741 37.5186 100.54C37.9053 100.332 38.1917 100.057 38.3779 99.7129V97.7148H37.2178C35.6637 97.7148 34.8366 98.252 34.7363 99.3262L34.7256 99.5088C34.7256 99.8955 34.8617 100.214 35.1338 100.465C35.4059 100.715 35.7783 100.841 36.251 100.841ZM50.1729 99.7881C50.1729 99.4085 49.9831 99.1113 49.6035 98.8965C49.2311 98.6745 48.6296 98.4775 47.7988 98.3057C45.0345 97.7256 43.6523 96.5511 43.6523 94.7822C43.6523 93.751 44.0785 92.8916 44.9307 92.2041C45.79 91.5094 46.9108 91.1621 48.293 91.1621C49.7682 91.1621 50.9463 91.5094 51.8271 92.2041C52.7152 92.8988 53.1592 93.8011 53.1592 94.9111H50.0547C50.0547 94.4671 49.9115 94.1019 49.625 93.8154C49.3385 93.5218 48.891 93.375 48.2822 93.375C47.7594 93.375 47.3548 93.4932 47.0684 93.7295C46.7819 93.9658 46.6387 94.2666 46.6387 94.6318C46.6387 94.9756 46.7998 95.2549 47.1221 95.4697C47.4515 95.6774 48.0029 95.86 48.7764 96.0176C49.5498 96.168 50.2015 96.3398 50.7314 96.5332C52.3714 97.1348 53.1914 98.1768 53.1914 99.6592C53.1914 100.719 52.7367 101.578 51.8271 102.237C50.9176 102.889 49.7432 103.215 48.3037 103.215C47.3298 103.215 46.4632 103.043 45.7041 102.699C44.9521 102.348 44.3613 101.872 43.9316 101.271C43.502 100.662 43.2871 100.007 43.2871 99.3047H46.2305C46.2591 99.8561 46.4632 100.279 46.8428 100.572C47.2223 100.866 47.7308 101.013 48.3682 101.013C48.9626 101.013 49.4102 100.902 49.7109 100.68C50.0189 100.451 50.1729 100.153 50.1729 99.7881ZM58.917 88.5195V91.377H60.9043V93.6543H58.917V99.4551C58.917 99.8848 58.9993 100.193 59.1641 100.379C59.3288 100.565 59.6439 100.658 60.1094 100.658C60.4531 100.658 60.7575 100.633 61.0225 100.583V102.936C60.4137 103.122 59.7871 103.215 59.1426 103.215C56.9655 103.215 55.8555 102.116 55.8125 99.917V93.6543H54.1152V91.377H55.8125V88.5195H58.917ZM69.165 94.2881C68.7425 94.2308 68.3701 94.2021 68.0479 94.2021C66.8734 94.2021 66.1035 94.5996 65.7383 95.3945V103H62.6338V91.377H65.5664L65.6523 92.7627C66.2754 91.6956 67.1383 91.1621 68.2412 91.1621C68.585 91.1621 68.9072 91.2087 69.208 91.3018L69.165 94.2881ZM77.082 103C76.9388 102.721 76.835 102.373 76.7705 101.958C76.0186 102.796 75.041 103.215 73.8379 103.215C72.6992 103.215 71.7539 102.885 71.002 102.227C70.2572 101.568 69.8848 100.737 69.8848 99.7344C69.8848 98.5026 70.3395 97.5573 71.249 96.8984C72.1657 96.2396 73.487 95.9066 75.2129 95.8994H76.6416V95.2334C76.6416 94.6963 76.502 94.2666 76.2227 93.9443C75.9505 93.6221 75.5173 93.4609 74.9229 93.4609C74.4001 93.4609 73.9883 93.5863 73.6875 93.8369C73.3939 94.0876 73.2471 94.4313 73.2471 94.8682H70.1426C70.1426 94.195 70.3503 93.5719 70.7656 92.999C71.181 92.4261 71.7682 91.9785 72.5273 91.6562C73.2865 91.3268 74.1387 91.1621 75.084 91.1621C76.5163 91.1621 77.6514 91.5238 78.4893 92.2471C79.3343 92.9632 79.7568 93.973 79.7568 95.2764V100.314C79.764 101.417 79.918 102.252 80.2188 102.817V103H77.082ZM74.5146 100.841C74.973 100.841 75.3955 100.741 75.7822 100.54C76.1689 100.332 76.4554 100.057 76.6416 99.7129V97.7148H75.4814C73.9274 97.7148 73.1003 98.252 73 99.3262L72.9893 99.5088C72.9893 99.8955 73.1253 100.214 73.3975 100.465C73.6696 100.715 74.042 100.841 74.5146 100.841ZM94.3555 103C94.2122 102.721 94.1084 102.373 94.0439 101.958C93.292 102.796 92.3145 103.215 91.1113 103.215C89.9727 103.215 89.0273 102.885 88.2754 102.227C87.5306 101.568 87.1582 100.737 87.1582 99.7344C87.1582 98.5026 87.613 97.5573 88.5225 96.8984C89.4391 96.2396 90.7604 95.9066 92.4863 95.8994H93.915V95.2334C93.915 94.6963 93.7754 94.2666 93.4961 93.9443C93.224 93.6221 92.7907 93.4609 92.1963 93.4609C91.6735 93.4609 91.2617 93.5863 90.9609 93.8369C90.6673 94.0876 90.5205 94.4313 90.5205 94.8682H87.416C87.416 94.195 87.6237 93.5719 88.0391 92.999C88.4544 92.4261 89.0417 91.9785 89.8008 91.6562C90.5599 91.3268 91.4121 91.1621 92.3574 91.1621C93.7897 91.1621 94.9248 91.5238 95.7627 92.2471C96.6077 92.9632 97.0303 93.973 97.0303 95.2764V100.314C97.0374 101.417 97.1914 102.252 97.4922 102.817V103H94.3555ZM91.7881 100.841C92.2464 100.841 92.6689 100.741 93.0557 100.54C93.4424 100.332 93.7288 100.057 93.915 99.7129V97.7148H92.7549C91.2008 97.7148 90.3737 98.252 90.2734 99.3262L90.2627 99.5088C90.2627 99.8955 90.3988 100.214 90.6709 100.465C90.943 100.715 91.3154 100.841 91.7881 100.841ZM105.946 94.2881C105.524 94.2308 105.151 94.2021 104.829 94.2021C103.655 94.2021 102.885 94.5996 102.52 95.3945V103H99.415V91.377H102.348L102.434 92.7627C103.057 91.6956 103.92 91.1621 105.022 91.1621C105.366 91.1621 105.688 91.2087 105.989 91.3018L105.946 94.2881ZM112.069 100.712C112.642 100.712 113.108 100.554 113.466 100.239C113.824 99.9242 114.01 99.5052 114.024 98.9824H116.936C116.928 99.7702 116.714 100.493 116.291 101.152C115.868 101.804 115.288 102.312 114.551 102.678C113.82 103.036 113.011 103.215 112.123 103.215C110.462 103.215 109.151 102.688 108.191 101.636C107.232 100.576 106.752 99.1149 106.752 97.2529V97.0488C106.752 95.2585 107.228 93.8298 108.181 92.7627C109.133 91.6956 110.44 91.1621 112.102 91.1621C113.555 91.1621 114.719 91.5775 115.593 92.4082C116.474 93.2318 116.921 94.3311 116.936 95.7061H114.024C114.01 95.1045 113.824 94.6175 113.466 94.2451C113.108 93.8656 112.635 93.6758 112.048 93.6758C111.325 93.6758 110.777 93.9408 110.404 94.4707C110.039 94.9935 109.856 95.8457 109.856 97.0273V97.3496C109.856 98.5456 110.039 99.4049 110.404 99.9277C110.77 100.451 111.325 100.712 112.069 100.712ZM121.737 92.6445C122.561 91.6562 123.596 91.1621 124.842 91.1621C127.363 91.1621 128.641 92.6266 128.677 95.5557V103H125.572V95.6416C125.572 94.9756 125.429 94.485 125.143 94.1699C124.856 93.8477 124.38 93.6865 123.714 93.6865C122.804 93.6865 122.146 94.0374 121.737 94.7393V103H118.633V86.5H121.737V92.6445ZM134.295 103H131.18V91.377H134.295V103ZM130.997 88.3691C130.997 87.9036 131.151 87.5205 131.459 87.2197C131.774 86.9189 132.2 86.7686 132.737 86.7686C133.267 86.7686 133.69 86.9189 134.005 87.2197C134.32 87.5205 134.478 87.9036 134.478 88.3691C134.478 88.8418 134.316 89.2285 133.994 89.5293C133.679 89.8301 133.26 89.9805 132.737 89.9805C132.215 89.9805 131.792 89.8301 131.47 89.5293C131.155 89.2285 130.997 88.8418 130.997 88.3691ZM141.213 99.208L143.372 91.377H146.616L142.695 103H139.73L135.81 91.377H139.054L141.213 99.208ZM147.336 97.0811C147.336 95.9281 147.558 94.9004 148.002 93.998C148.446 93.0957 149.083 92.3975 149.914 91.9033C150.752 91.4092 151.722 91.1621 152.825 91.1621C154.394 91.1621 155.672 91.6419 156.66 92.6016C157.656 93.5612 158.211 94.8646 158.325 96.5117L158.347 97.3066C158.347 99.0898 157.849 100.522 156.854 101.604C155.858 102.678 154.522 103.215 152.847 103.215C151.171 103.215 149.832 102.678 148.829 101.604C147.834 100.529 147.336 99.0684 147.336 97.2207V97.0811ZM150.44 97.3066C150.44 98.4095 150.648 99.2546 151.063 99.8418C151.479 100.422 152.073 100.712 152.847 100.712C153.599 100.712 154.186 100.425 154.608 99.8525C155.031 99.2725 155.242 98.3486 155.242 97.0811C155.242 95.9997 155.031 95.1618 154.608 94.5674C154.186 93.973 153.591 93.6758 152.825 93.6758C152.066 93.6758 151.479 93.973 151.063 94.5674C150.648 95.1546 150.44 96.0677 150.44 97.3066ZM166.554 99.7881C166.554 99.4085 166.364 99.1113 165.984 98.8965C165.612 98.6745 165.01 98.4775 164.18 98.3057C161.415 97.7256 160.033 96.5511 160.033 94.7822C160.033 93.751 160.459 92.8916 161.312 92.2041C162.171 91.5094 163.292 91.1621 164.674 91.1621C166.149 91.1621 167.327 91.5094 168.208 92.2041C169.096 92.8988 169.54 93.8011 169.54 94.9111H166.436C166.436 94.4671 166.292 94.1019 166.006 93.8154C165.719 93.5218 165.272 93.375 164.663 93.375C164.14 93.375 163.736 93.4932 163.449 93.7295C163.163 93.9658 163.02 94.2666 163.02 94.6318C163.02 94.9756 163.181 95.2549 163.503 95.4697C163.832 95.6774 164.384 95.86 165.157 96.0176C165.931 96.168 166.582 96.3398 167.112 96.5332C168.752 97.1348 169.572 98.1768 169.572 99.6592C169.572 100.719 169.118 101.578 168.208 102.237C167.299 102.889 166.124 103.215 164.685 103.215C163.711 103.215 162.844 103.043 162.085 102.699C161.333 102.348 160.742 101.872 160.312 101.271C159.883 100.662 159.668 100.007 159.668 99.3047H162.611C162.64 99.8561 162.844 100.279 163.224 100.572C163.603 100.866 164.112 101.013 164.749 101.013C165.343 101.013 165.791 100.902 166.092 100.68C166.4 100.451 166.554 100.153 166.554 99.7881ZM183.795 103C183.652 102.721 183.548 102.373 183.483 101.958C182.731 102.796 181.754 103.215 180.551 103.215C179.412 103.215 178.467 102.885 177.715 102.227C176.97 101.568 176.598 100.737 176.598 99.7344C176.598 98.5026 177.052 97.5573 177.962 96.8984C178.879 96.2396 180.2 95.9066 181.926 95.8994H183.354V95.2334C183.354 94.6963 183.215 94.2666 182.936 93.9443C182.663 93.6221 182.23 93.4609 181.636 93.4609C181.113 93.4609 180.701 93.5863 180.4 93.8369C180.107 94.0876 179.96 94.4313 179.96 94.8682H176.855C176.855 94.195 177.063 93.5719 177.479 92.999C177.894 92.4261 178.481 91.9785 179.24 91.6562C179.999 91.3268 180.852 91.1621 181.797 91.1621C183.229 91.1621 184.364 91.5238 185.202 92.2471C186.047 92.9632 186.47 93.973 186.47 95.2764V100.314C186.477 101.417 186.631 102.252 186.932 102.817V103H183.795ZM181.228 100.841C181.686 100.841 182.108 100.741 182.495 100.54C182.882 100.332 183.168 100.057 183.354 99.7129V97.7148H182.194C180.64 97.7148 179.813 98.252 179.713 99.3262L179.702 99.5088C179.702 99.8955 179.838 100.214 180.11 100.465C180.382 100.715 180.755 100.841 181.228 100.841ZM199.683 103.215C197.978 103.215 196.589 102.692 195.515 101.646C194.448 100.601 193.914 99.208 193.914 97.4678V97.167C193.914 95.9997 194.14 94.9577 194.591 94.041C195.042 93.1172 195.679 92.4082 196.503 91.9141C197.334 91.4128 198.279 91.1621 199.339 91.1621C200.929 91.1621 202.178 91.6634 203.088 92.666C204.005 93.6686 204.463 95.0902 204.463 96.9307V98.1982H197.062C197.162 98.9574 197.463 99.5661 197.964 100.024C198.472 100.483 199.113 100.712 199.887 100.712C201.083 100.712 202.017 100.279 202.69 99.4121L204.216 101.12C203.75 101.779 203.12 102.295 202.325 102.667C201.53 103.032 200.649 103.215 199.683 103.215ZM199.328 93.6758C198.712 93.6758 198.211 93.8835 197.824 94.2988C197.445 94.7142 197.201 95.3086 197.094 96.082H201.412V95.835C201.398 95.1475 201.212 94.6175 200.854 94.2451C200.495 93.8656 199.987 93.6758 199.328 93.6758ZM212.53 99.7881C212.53 99.4085 212.34 99.1113 211.961 98.8965C211.589 98.6745 210.987 98.4775 210.156 98.3057C207.392 97.7256 206.01 96.5511 206.01 94.7822C206.01 93.751 206.436 92.8916 207.288 92.2041C208.147 91.5094 209.268 91.1621 210.65 91.1621C212.126 91.1621 213.304 91.5094 214.185 92.2041C215.073 92.8988 215.517 93.8011 215.517 94.9111H212.412C212.412 94.4671 212.269 94.1019 211.982 93.8154C211.696 93.5218 211.248 93.375 210.64 93.375C210.117 93.375 209.712 93.4932 209.426 93.7295C209.139 93.9658 208.996 94.2666 208.996 94.6318C208.996 94.9756 209.157 95.2549 209.479 95.4697C209.809 95.6774 210.36 95.86 211.134 96.0176C211.907 96.168 212.559 96.3398 213.089 96.5332C214.729 97.1348 215.549 98.1768 215.549 99.6592C215.549 100.719 215.094 101.578 214.185 102.237C213.275 102.889 212.101 103.215 210.661 103.215C209.687 103.215 208.821 103.043 208.062 102.699C207.31 102.348 206.719 101.872 206.289 101.271C205.859 100.662 205.645 100.007 205.645 99.3047H208.588C208.617 99.8561 208.821 100.279 209.2 100.572C209.58 100.866 210.088 101.013 210.726 101.013C211.32 101.013 211.768 100.902 212.068 100.68C212.376 100.451 212.53 100.153 212.53 99.7881ZM221.274 88.5195V91.377H223.262V93.6543H221.274V99.4551C221.274 99.8848 221.357 100.193 221.521 100.379C221.686 100.565 222.001 100.658 222.467 100.658C222.811 100.658 223.115 100.633 223.38 100.583V102.936C222.771 103.122 222.145 103.215 221.5 103.215C219.323 103.215 218.213 102.116 218.17 99.917V93.6543H216.473V91.377H218.17V88.5195H221.274ZM231.727 103C231.583 102.721 231.479 102.373 231.415 101.958C230.663 102.796 229.686 103.215 228.482 103.215C227.344 103.215 226.398 102.885 225.646 102.227C224.902 101.568 224.529 100.737 224.529 99.7344C224.529 98.5026 224.984 97.5573 225.894 96.8984C226.81 96.2396 228.132 95.9066 229.857 95.8994H231.286V95.2334C231.286 94.6963 231.146 94.2666 230.867 93.9443C230.595 93.6221 230.162 93.4609 229.567 93.4609C229.045 93.4609 228.633 93.5863 228.332 93.8369C228.038 94.0876 227.892 94.4313 227.892 94.8682H224.787C224.787 94.195 224.995 93.5719 225.41 92.999C225.826 92.4261 226.413 91.9785 227.172 91.6562C227.931 91.3268 228.783 91.1621 229.729 91.1621C231.161 91.1621 232.296 91.5238 233.134 92.2471C233.979 92.9632 234.401 93.973 234.401 95.2764V100.314C234.409 101.417 234.562 102.252 234.863 102.817V103H231.727ZM229.159 100.841C229.618 100.841 230.04 100.741 230.427 100.54C230.813 100.332 231.1 100.057 231.286 99.7129V97.7148H230.126C228.572 97.7148 227.745 98.252 227.645 99.3262L227.634 99.5088C227.634 99.8955 227.77 100.214 228.042 100.465C228.314 100.715 228.687 100.841 229.159 100.841ZM245.831 100.497H251.514V103H241.867V101.109L247.335 93.8906H242.028V91.377H251.342V93.2139L245.831 100.497ZM252.803 97.0811C252.803 95.9281 253.025 94.9004 253.469 93.998C253.913 93.0957 254.55 92.3975 255.381 91.9033C256.219 91.4092 257.189 91.1621 258.292 91.1621C259.86 91.1621 261.139 91.6419 262.127 92.6016C263.122 93.5612 263.677 94.8646 263.792 96.5117L263.813 97.3066C263.813 99.0898 263.316 100.522 262.32 101.604C261.325 102.678 259.989 103.215 258.313 103.215C256.638 103.215 255.299 102.678 254.296 101.604C253.3 100.529 252.803 99.0684 252.803 97.2207V97.0811ZM255.907 97.3066C255.907 98.4095 256.115 99.2546 256.53 99.8418C256.946 100.422 257.54 100.712 258.313 100.712C259.065 100.712 259.653 100.425 260.075 99.8525C260.498 99.2725 260.709 98.3486 260.709 97.0811C260.709 95.9997 260.498 95.1618 260.075 94.5674C259.653 93.973 259.058 93.6758 258.292 93.6758C257.533 93.6758 256.946 93.973 256.53 94.5674C256.115 95.1546 255.907 96.0677 255.907 97.3066ZM268.583 91.377L268.68 92.7197C269.51 91.6813 270.624 91.1621 272.021 91.1621C273.252 91.1621 274.169 91.5238 274.771 92.2471C275.372 92.9704 275.68 94.0518 275.694 95.4912V103H272.59V95.5664C272.59 94.9076 272.447 94.4313 272.16 94.1377C271.874 93.8369 271.397 93.6865 270.731 93.6865C269.858 93.6865 269.202 94.0589 268.766 94.8037V103H265.661V91.377H268.583ZM284.793 103C284.65 102.721 284.546 102.373 284.481 101.958C283.729 102.796 282.752 103.215 281.549 103.215C280.41 103.215 279.465 102.885 278.713 102.227C277.968 101.568 277.596 100.737 277.596 99.7344C277.596 98.5026 278.05 97.5573 278.96 96.8984C279.877 96.2396 281.198 95.9066 282.924 95.8994H284.353V95.2334C284.353 94.6963 284.213 94.2666 283.934 93.9443C283.661 93.6221 283.228 93.4609 282.634 93.4609C282.111 93.4609 281.699 93.5863 281.398 93.8369C281.105 94.0876 280.958 94.4313 280.958 94.8682H277.854C277.854 94.195 278.061 93.5719 278.477 92.999C278.892 92.4261 279.479 91.9785 280.238 91.6562C280.997 91.3268 281.85 91.1621 282.795 91.1621C284.227 91.1621 285.362 91.5238 286.2 92.2471C287.045 92.9632 287.468 93.973 287.468 95.2764V100.314C287.475 101.417 287.629 102.252 287.93 102.817V103H284.793ZM282.226 100.841C282.684 100.841 283.106 100.741 283.493 100.54C283.88 100.332 284.166 100.057 284.353 99.7129V97.7148H283.192C281.638 97.7148 280.811 98.252 280.711 99.3262L280.7 99.5088C280.7 99.8955 280.836 100.214 281.108 100.465C281.381 100.715 281.753 100.841 282.226 100.841ZM138.989 123.081C138.989 121.928 139.211 120.9 139.655 119.998C140.099 119.096 140.737 118.397 141.567 117.903C142.405 117.409 143.376 117.162 144.479 117.162C146.047 117.162 147.325 117.642 148.313 118.602C149.309 119.561 149.864 120.865 149.979 122.512L150 123.307C150 125.09 149.502 126.522 148.507 127.604C147.511 128.678 146.176 129.215 144.5 129.215C142.824 129.215 141.485 128.678 140.482 127.604C139.487 126.529 138.989 125.068 138.989 123.221V123.081ZM142.094 123.307C142.094 124.41 142.301 125.255 142.717 125.842C143.132 126.422 143.727 126.712 144.5 126.712C145.252 126.712 145.839 126.425 146.262 125.853C146.684 125.272 146.896 124.349 146.896 123.081C146.896 122 146.684 121.162 146.262 120.567C145.839 119.973 145.245 119.676 144.479 119.676C143.719 119.676 143.132 119.973 142.717 120.567C142.301 121.155 142.094 122.068 142.094 123.307Z" fill="black"/>
</svg>
