<svg width="367" height="104" viewBox="0 0 367 104" fill="none" xmlns="http://www.w3.org/2000/svg">
<path d="M0.210789 12.6H8.13079V63H0.210789V12.6ZM14.0624 12.6H23.9984L31.7024 42.768H31.8464V12.6H38.9024V63H30.7664L21.2624 26.208H21.1184V63H14.0624V12.6ZM44.7889 12.6H52.7089V63H44.7889V12.6ZM69.8005 63.72C66.0085 63.72 63.1045 62.64 61.0885 60.48C59.1205 58.32 58.1365 55.272 58.1365 51.336V24.264C58.1365 20.328 59.1205 17.28 61.0885 15.12C63.1045 12.96 66.0085 11.88 69.8005 11.88C73.5925 11.88 76.4725 12.96 78.4405 15.12C80.4565 17.28 81.4645 20.328 81.4645 24.264V29.592H73.9765V23.76C73.9765 20.64 72.6565 19.08 70.0165 19.08C67.3765 19.08 66.0565 20.64 66.0565 23.76V51.912C66.0565 54.984 67.3765 56.52 70.0165 56.52C72.6565 56.52 73.9765 54.984 73.9765 51.912V44.208H81.4645V51.336C81.4645 55.272 80.4565 58.32 78.4405 60.48C76.4725 62.64 73.5925 63.72 69.8005 63.72ZM86.203 12.6H94.123V63H86.203V12.6ZM106.175 12.6H116.903L125.111 63H117.191L115.751 52.992V53.136H106.751L105.311 63H97.9665L106.175 12.6ZM114.815 46.296L111.287 21.384H111.143L107.687 46.296H114.815ZM128.953 12.6H140.689C144.769 12.6 147.745 13.56 149.617 15.48C151.489 17.352 152.425 20.256 152.425 24.192V27.288C152.425 32.52 150.697 35.832 147.241 37.224V37.368C149.161 37.944 150.505 39.12 151.273 40.896C152.089 42.672 152.497 45.048 152.497 48.024V56.88C152.497 58.32 152.545 59.496 152.641 60.408C152.737 61.272 152.977 62.136 153.361 63H145.297C145.009 62.184 144.817 61.416 144.721 60.696C144.625 59.976 144.577 58.68 144.577 56.808V47.592C144.577 45.288 144.193 43.68 143.425 42.768C142.705 41.856 141.433 41.4 139.609 41.4H136.873V63H128.953V12.6ZM139.753 34.2C141.337 34.2 142.513 33.792 143.281 32.976C144.097 32.16 144.505 30.792 144.505 28.872V24.984C144.505 23.16 144.169 21.84 143.497 21.024C142.873 20.208 141.865 19.8 140.473 19.8H136.873V34.2H139.753ZM179.819 63.72C175.979 63.72 173.075 62.64 171.107 60.48C169.139 58.272 168.155 55.128 168.155 51.048V48.168H175.643V51.624C175.643 54.888 177.011 56.52 179.747 56.52C181.091 56.52 182.099 56.136 182.771 55.368C183.491 54.552 183.851 53.256 183.851 51.48C183.851 49.368 183.371 47.52 182.411 45.936C181.451 44.304 179.675 42.36 177.083 40.104C173.819 37.224 171.539 34.632 170.243 32.328C168.947 29.976 168.299 27.336 168.299 24.408C168.299 20.424 169.307 17.352 171.323 15.192C173.339 12.984 176.267 11.88 180.107 11.88C183.899 11.88 186.755 12.984 188.675 15.192C190.643 17.352 191.627 20.472 191.627 24.552V26.64H184.139V24.048C184.139 22.32 183.803 21.072 183.131 20.304C182.459 19.488 181.475 19.08 180.179 19.08C177.539 19.08 176.219 20.688 176.219 23.904C176.219 25.728 176.699 27.432 177.659 29.016C178.667 30.6 180.467 32.52 183.059 34.776C186.371 37.656 188.651 40.272 189.899 42.624C191.147 44.976 191.771 47.736 191.771 50.904C191.771 55.032 190.739 58.2 188.675 60.408C186.659 62.616 183.707 63.72 179.819 63.72ZM196.312 12.6H217.912V19.8H204.232V33.12H215.104V40.32H204.232V55.8H217.912V63H196.312V12.6ZM232.905 63.72C229.065 63.72 226.161 62.64 224.193 60.48C222.225 58.272 221.241 55.128 221.241 51.048V48.168H228.729V51.624C228.729 54.888 230.097 56.52 232.833 56.52C234.177 56.52 235.185 56.136 235.857 55.368C236.577 54.552 236.937 53.256 236.937 51.48C236.937 49.368 236.457 47.52 235.497 45.936C234.537 44.304 232.761 42.36 230.169 40.104C226.905 37.224 224.625 34.632 223.329 32.328C222.033 29.976 221.385 27.336 221.385 24.408C221.385 20.424 222.393 17.352 224.409 15.192C226.425 12.984 229.353 11.88 233.193 11.88C236.985 11.88 239.841 12.984 241.761 15.192C243.729 17.352 244.713 20.472 244.713 24.552V26.64H237.225V24.048C237.225 22.32 236.889 21.072 236.217 20.304C235.545 19.488 234.561 19.08 233.265 19.08C230.625 19.08 229.305 20.688 229.305 23.904C229.305 25.728 229.785 27.432 230.745 29.016C231.753 30.6 233.553 32.52 236.145 34.776C239.457 37.656 241.737 40.272 242.985 42.624C244.233 44.976 244.857 47.736 244.857 50.904C244.857 55.032 243.825 58.2 241.761 60.408C239.745 62.616 236.793 63.72 232.905 63.72ZM249.398 12.6H257.318V63H249.398V12.6ZM274.698 63.72C270.81 63.72 267.834 62.616 265.77 60.408C263.706 58.2 262.674 55.08 262.674 51.048V24.552C262.674 20.52 263.706 17.4 265.77 15.192C267.834 12.984 270.81 11.88 274.698 11.88C278.586 11.88 281.562 12.984 283.626 15.192C285.69 17.4 286.722 20.52 286.722 24.552V51.048C286.722 55.08 285.69 58.2 283.626 60.408C281.562 62.616 278.586 63.72 274.698 63.72ZM274.698 56.52C277.434 56.52 278.802 54.864 278.802 51.552V24.048C278.802 20.736 277.434 19.08 274.698 19.08C271.962 19.08 270.594 20.736 270.594 24.048V51.552C270.594 54.864 271.962 56.52 274.698 56.52ZM275.418 0.935997H284.058L276.354 9.216H270.378L275.418 0.935997ZM292.078 12.6H302.014L309.718 42.768H309.862V12.6H316.918V63H308.782L299.278 26.208H299.134V63H292.078V12.6ZM337.264 63.3C335.684 63.3 334.474 62.85 333.634 61.95C332.814 61.05 332.404 59.78 332.404 58.14V46.86C332.404 45.22 332.814 43.95 333.634 43.05C334.474 42.15 335.684 41.7 337.264 41.7C338.844 41.7 340.044 42.15 340.864 43.05C341.704 43.95 342.124 45.22 342.124 46.86V49.08H339.004V46.65C339.004 45.35 338.454 44.7 337.354 44.7C336.254 44.7 335.704 45.35 335.704 46.65V58.38C335.704 59.66 336.254 60.3 337.354 60.3C338.454 60.3 339.004 59.66 339.004 58.38V55.17H342.124V58.14C342.124 59.78 341.704 61.05 340.864 61.95C340.044 62.85 338.844 63.3 337.264 63.3ZM348.927 63.3C347.307 63.3 346.067 62.84 345.207 61.92C344.347 61 343.917 59.7 343.917 58.02V46.98C343.917 45.3 344.347 44 345.207 43.08C346.067 42.16 347.307 41.7 348.927 41.7C350.547 41.7 351.787 42.16 352.647 43.08C353.507 44 353.937 45.3 353.937 46.98V58.02C353.937 59.7 353.507 61 352.647 61.92C351.787 62.84 350.547 63.3 348.927 63.3ZM348.927 60.3C350.067 60.3 350.637 59.61 350.637 58.23V46.77C350.637 45.39 350.067 44.7 348.927 44.7C347.787 44.7 347.217 45.39 347.217 46.77V58.23C347.217 59.61 347.787 60.3 348.927 60.3ZM356.168 42H360.308L363.518 54.57H363.578V42H366.518V63H363.128L359.168 47.67H359.108V63H356.168V42ZM111.616 80.66H121.216V85.58H120.016L115.546 104H106.576L103.846 91.04H103.546L100.666 104H91.6962L86.9262 85.58H85.7262V80.66H96.8262V85.58H95.6862L96.8562 93.23H97.1562L100.006 80.66H108.646L111.286 93.23H111.586L112.756 85.58H111.616V80.66ZM146.177 85.58H144.677V99.08H146.177V104H134.837V99.08H136.277V94.13H132.077V99.08H133.517V104H122.177V99.08H123.677V85.58H122.177V80.66H133.517V85.58H132.077V90.14H136.277V85.58H134.837V80.66H146.177V85.58ZM147.372 104V99.08H148.872V85.58H147.372V80.66H167.622V89.72H160.902V85.58H157.272V90.32H159.912V93.74H157.272V99.08H160.902V94.34H167.622V104H147.372ZM190.779 99.08H191.979V104H180.219V99.08H182.019L181.539 96.68H177.459L176.979 99.08H178.779V104H168.519V99.08H169.719L174.789 80.66H185.709L190.779 99.08ZM178.119 93.5H180.879L179.649 87.53H179.349L178.119 93.5ZM192.929 104V99.08H194.429V85.58H192.929V80.66H205.589V85.58H202.829V99.08H205.529V96.32H211.499V104H192.929ZM230.719 87.92H225.559V85.58H223.639V99.08H225.739V104H213.139V99.08H215.239V85.58H213.319V87.92H208.159V80.66H230.719V87.92ZM255.747 85.58H254.247V99.08H255.747V104H244.407V99.08H245.847V94.13H241.647V99.08H243.087V104H231.747V99.08H233.247V85.58H231.747V80.66H243.087V85.58H241.647V90.14H245.847V85.58H244.407V80.66H255.747V85.58ZM270.053 80.66H279.263V85.58H278.063L272.273 95.96V99.08H273.773V104H262.373V99.08H263.873V95.96L257.903 85.58H256.703V80.66H268.313V85.58H267.263L269.033 90.23H269.333L271.103 85.58H270.053V80.66Z" fill="black"/>
</svg>
