<svg width="141" height="141" viewBox="0 0 141 141" fill="none" xmlns="http://www.w3.org/2000/svg">
<path d="M90.7795 57.9983C89.8967 58.9788 89.3082 59.7632 88.6215 60.4496C87.4445 61.6262 86.856 62.3616 85.2375 64.0775C81.8045 67.7545 82.8344 66.9211 80.2351 69.4214C77.6358 71.9218 76.6549 72.6572 75.576 72.7062C74.3009 72.7552 73.6633 71.6766 71.0149 68.8331C69.4946 67.2152 67.8762 65.6954 64.6393 62.6558C64.0998 62.1165 62.1871 60.3025 59.9311 57.7531C58.8521 56.5275 58.3127 55.8411 57.8713 54.8115C57.3318 53.3408 57.1847 51.7229 57.4299 50.2031C57.528 48.9774 57.8222 47.7517 58.3127 46.6241C58.9012 45.1533 59.8821 43.8296 61.1081 42.751C63.0208 41.1822 65.3749 40.3488 67.8271 40.3488C69.1022 40.3978 70.3774 40.6429 71.5544 41.1822C71.7506 41.2803 74.5461 42.4569 75.0365 43.6825C75.0855 43.7806 75.2327 44.1238 75.4289 44.1238C75.625 44.1238 75.8212 43.8296 75.8702 43.7316C76.0664 43.3884 76.6549 42.9962 77.7339 42.1627C78.6167 41.5744 79.6466 41.1332 80.7255 40.9371C81.8535 40.6429 82.9816 40.5449 84.1586 40.6429C85.0904 40.741 85.9732 40.9371 86.856 41.3293C87.7878 41.6725 88.6215 42.1627 89.4062 42.751C90.24 43.3394 90.9756 44.0748 91.5642 44.9572C92.1036 45.7907 92.545 46.6732 92.8393 47.6047C93.1826 48.4381 93.3788 49.2716 93.4769 50.154C93.5749 51.2326 93.3788 52.017 93.0355 53.6349C92.9374 54.2723 92.7412 54.8606 92.545 55.4489C92.1036 56.3804 91.5151 57.2629 90.7795 57.9983Z" fill="#FF1717"/>
<path d="M67.9743 123.252V141H0V75.6478H17.3123V87.3651H11.231L11.329 129.479L56.449 129.332V123.252H67.9743Z" fill="#FF1717"/>
<path d="M141 134.872V141H106.817H92.7903H78.2244V132.567V122.958L89.3082 123.007L89.3572 129.234H99.3131L121.432 129.185H129.622L129.573 110.211V96.6801L129.524 82.6095L123.688 82.5605L123.639 70.549H141V89.3261V107.613V122.615V134.872Z" fill="#FF1717"/>
<path d="M140.951 42.3588V63.2441H135.262H123.835V52.0661H129.769V11.2761H84.4039V17.6495H73.4672V0H77.0964H93.7712H117.753H140.951V7.0598V21.2775V42.3588Z" fill="#FF1717"/>
<path d="M100.294 74.4711C100.637 75.2065 100.784 75.991 100.735 76.7754C100.735 77.5598 100.637 78.3442 100.343 79.0796C99.9016 80.2563 99.264 80.6485 97.8908 82.1193C97.4984 82.5115 97.8417 82.1683 95.7329 84.7177C93.9673 86.8748 93.8692 86.9239 92.1527 89.032C91.417 89.9145 90.3871 91.1401 88.8668 92.9541C88.033 94.0327 87.1012 95.0132 86.1203 95.8957C85.2376 96.6801 85.1395 96.5821 84.1096 97.4645C83.6191 97.9548 83.0796 98.347 82.4421 98.6412C82.0007 98.7882 81.5593 98.8863 81.1179 98.9353C80.3823 99.0334 79.5976 99.0334 78.8619 98.9353C77.3416 98.8373 75.8212 98.8373 74.2518 98.8863C69.6417 98.8373 70.3774 98.8863 68.808 98.8373C66.552 98.7392 65.5711 98.5921 63.4132 98.6412C61.5496 98.6902 61.5986 98.7882 60.5196 98.7392C58.9503 98.6412 58.3617 98.396 57.577 98.8373C57.0866 99.2295 56.6452 99.6707 56.2529 100.161C55.9096 100.553 55.6643 100.896 55.1739 101.387C54.4383 102.122 54.2421 102.22 54.0459 102.22C53.7026 102.22 53.4083 102.024 52.9179 101.583C51.888 100.749 51.3976 100.308 51.2504 100.161C50.76 99.6217 49.3377 98.396 46.4442 95.9447C44.041 93.9837 42.913 92.9541 42.0302 92.4148C39.9214 91.0911 38.1068 90.4047 38.1558 89.2771C38.1558 89.032 38.352 88.7869 38.6953 88.2966C39.2838 87.5122 39.9704 86.8748 40.7551 86.3355C41.0003 86.1394 41.736 85.404 43.2073 83.8842C44.5805 82.4625 44.4824 82.5115 45.5123 81.4819C47.1798 79.766 48.0626 78.9325 49.0925 78.1481C49.9263 77.5598 50.8581 77.0205 51.7899 76.5793L53.8988 75.7458C55.4682 75.1085 55.7134 75.0104 56.2038 74.9614C56.4 74.9124 56.9885 74.9124 58.1165 74.8633C59.0974 74.8143 59.6369 74.8143 60.0292 74.8143C60.2744 74.8143 61.1082 74.8143 62.2362 74.9614C62.9718 75.0104 63.7565 75.1085 64.4431 75.3536C64.9336 75.5987 65.424 75.7949 65.9144 75.991C66.3558 76.089 66.7482 76.138 67.1896 76.1871C67.8762 76.2361 68.6118 76.2851 69.3475 76.2361C71.064 76.1871 70.4755 76.2851 73.5652 76.1871C74.6932 76.138 75.8212 76.2361 76.9492 76.138C77.6849 76.04 78.4205 76.089 79.1071 76.3832C79.4995 76.5303 79.8428 76.7754 80.137 77.0695C80.5784 77.4127 80.9708 77.854 81.216 78.3442C81.5593 78.9325 81.7064 79.6189 81.7064 80.3053C81.7064 80.9917 81.6574 81.629 81.4122 82.2663C81.265 82.7566 81.0198 83.2469 80.7256 83.6881C80.3823 84.1784 79.9409 84.6196 79.4014 84.8647C79.1071 84.9628 78.8619 85.0118 77.7339 85.0608C76.5078 85.0608 75.8703 85.0608 75.8703 85.0608C73.1238 84.9628 73.2219 85.2079 71.2602 85.0608C70.5736 85.0118 69.8869 85.0118 69.2003 85.0608C68.2195 85.1099 67.8762 85.2079 67.6309 85.5021C67.3857 85.8453 67.3367 86.3355 67.4348 86.7277C67.4838 87.0219 67.68 87.3161 67.9252 87.4631C68.3666 87.7083 68.857 87.7083 69.3475 87.5612C69.6908 87.5122 69.2494 87.6102 72.2901 87.6593C74.0556 87.6593 73.8104 87.6593 75.527 87.6593C76.704 87.6593 77.832 87.5122 79.009 87.6593C79.5485 87.7573 80.088 87.7083 80.5784 87.5122C80.9708 87.3161 81.3141 87.0219 81.6083 86.7277C83.1777 85.2079 82.9325 85.5021 83.2758 85.1589C83.9624 84.4235 83.9624 84.3255 84.9923 83.0998C85.9242 81.9722 86.7089 81.1387 87.2974 80.4524C87.984 79.6679 87.984 79.766 88.5725 79.0796C88.9649 78.6384 89.4063 78.1481 90.9756 76.2851C91.7603 75.3046 92.6431 74.3731 93.5259 73.4906C94.0163 72.9513 94.6539 72.5591 95.3405 72.314C96.0271 72.1669 96.7137 72.1669 97.3513 72.363C97.9398 72.5101 98.4793 72.8042 98.9697 73.1474C99.5583 73.4416 99.9506 73.9318 100.294 74.4711Z" fill="#FF1717"/>
<path d="M116.871 113.153V117.614H25.2574V23.3366H116.871V113.153ZM105.198 106.927V35.9364H34.4285V106.927H105.198Z" fill="#FF1717"/>
<path d="M62.5304 0L62.9718 17.5515L51.3485 17.5024V11.4722H11.1329L11.0838 57.2629H17.2633V68.0977H0V0H62.5304Z" fill="#FF1717"/>
</svg>
