<svg width="303" height="64" viewBox="0 0 303 64" fill="none" xmlns="http://www.w3.org/2000/svg">
<path d="M0.952 12.6H12.688C16.768 12.6 19.744 13.56 21.616 15.48C23.488 17.352 24.424 20.256 24.424 24.192V27.288C24.424 32.52 22.696 35.832 19.24 37.224V37.368C21.16 37.944 22.504 39.12 23.272 40.896C24.088 42.672 24.496 45.048 24.496 48.024V56.88C24.496 58.32 24.544 59.496 24.64 60.408C24.736 61.272 24.976 62.136 25.36 63H17.296C17.008 62.184 16.816 61.416 16.72 60.696C16.624 59.976 16.576 58.68 16.576 56.808V47.592C16.576 45.288 16.192 43.68 15.424 42.768C14.704 41.856 13.432 41.4 11.608 41.4H8.872V63H0.952V12.6ZM11.752 34.2C13.336 34.2 14.512 33.792 15.28 32.976C16.096 32.16 16.504 30.792 16.504 28.872V24.984C16.504 23.16 16.168 21.84 15.496 21.024C14.872 20.208 13.864 19.8 12.472 19.8H8.872V34.2H11.752ZM29.9911 12.6H51.5911V19.8H37.9111V33.12H48.7831V40.32H37.9111V55.8H51.5911V63H29.9911V12.6ZM67.3793 63.72C63.5393 63.72 60.6113 62.64 58.5953 60.48C56.5793 58.272 55.5713 55.128 55.5713 51.048V24.552C55.5713 20.472 56.5793 17.352 58.5953 15.192C60.6113 12.984 63.5393 11.88 67.3793 11.88C71.2193 11.88 74.1473 12.984 76.1633 15.192C78.1793 17.352 79.1873 20.472 79.1873 24.552V28.872H71.6993V24.048C71.6993 20.736 70.3313 19.08 67.5953 19.08C64.8593 19.08 63.4913 20.736 63.4913 24.048V51.624C63.4913 54.888 64.8593 56.52 67.5953 56.52C70.3313 56.52 71.6993 54.888 71.6993 51.624V41.76H67.7393V34.56H79.1873V51.048C79.1873 55.128 78.1793 58.272 76.1633 60.48C74.1473 62.64 71.2193 63.72 67.3793 63.72ZM84.2723 12.6H92.1923V63H84.2723V12.6ZM88.9523 0.935997H97.5923L89.8883 9.216H83.9123L88.9523 0.935997ZM108.42 63.72C104.58 63.72 101.676 62.64 99.7079 60.48C97.7399 58.272 96.7559 55.128 96.7559 51.048V48.168H104.244V51.624C104.244 54.888 105.612 56.52 108.348 56.52C109.692 56.52 110.7 56.136 111.372 55.368C112.092 54.552 112.452 53.256 112.452 51.48C112.452 49.368 111.972 47.52 111.012 45.936C110.052 44.304 108.276 42.36 105.684 40.104C102.42 37.224 100.14 34.632 98.8439 32.328C97.5479 29.976 96.8999 27.336 96.8999 24.408C96.8999 20.424 97.9079 17.352 99.9239 15.192C101.94 12.984 104.868 11.88 108.708 11.88C112.5 11.88 115.356 12.984 117.276 15.192C119.244 17.352 120.228 20.472 120.228 24.552V26.64H112.74V24.048C112.74 22.32 112.404 21.072 111.732 20.304C111.06 19.488 110.076 19.08 108.78 19.08C106.14 19.08 104.82 20.688 104.82 23.904C104.82 25.728 105.3 27.432 106.26 29.016C107.268 30.6 109.068 32.52 111.66 34.776C114.972 37.656 117.252 40.272 118.5 42.624C119.748 44.976 120.372 47.736 120.372 50.904C120.372 55.032 119.34 58.2 117.276 60.408C115.26 62.616 112.308 63.72 108.42 63.72ZM131.105 19.8H122.825V12.6H147.305V19.8H139.025V63H131.105V19.8ZM151.14 12.6H162.876C166.956 12.6 169.932 13.56 171.804 15.48C173.676 17.352 174.612 20.256 174.612 24.192V27.288C174.612 32.52 172.884 35.832 169.428 37.224V37.368C171.348 37.944 172.692 39.12 173.46 40.896C174.276 42.672 174.684 45.048 174.684 48.024V56.88C174.684 58.32 174.732 59.496 174.828 60.408C174.924 61.272 175.164 62.136 175.548 63H167.484C167.196 62.184 167.004 61.416 166.908 60.696C166.812 59.976 166.764 58.68 166.764 56.808V47.592C166.764 45.288 166.38 43.68 165.612 42.768C164.892 41.856 163.62 41.4 161.796 41.4H159.06V63H151.14V12.6ZM161.94 34.2C163.524 34.2 164.7 33.792 165.468 32.976C166.284 32.16 166.691 30.792 166.691 28.872V24.984C166.691 23.16 166.356 21.84 165.684 21.024C165.06 20.208 164.052 19.8 162.66 19.8H159.06V34.2H161.94ZM186.299 12.6H197.027L205.235 63H197.315L195.875 52.992V53.136H186.875L185.435 63H178.091L186.299 12.6ZM194.939 46.296L191.411 21.384H191.267L187.811 46.296H194.939ZM211.964 19.8H203.684V12.6H228.164V19.8H219.884V63H211.964V19.8ZM231.999 12.6H253.599V19.8H239.919V33.12H250.791V40.32H239.919V55.8H253.599V63H231.999V12.6ZM268.702 29.4H283.102V34.2H273.982V43.08H281.23V47.88H273.982V58.2H283.102V63H268.702V29.4ZM286.14 29.4H292.764L297.9 49.512H297.996V29.4H302.7V63H297.276L290.94 38.472H290.844V63H286.14V29.4Z" fill="black"/>
</svg>
