<svg width="375" height="360" viewBox="0 0 375 360" fill="none" xmlns="http://www.w3.org/2000/svg">
<g opacity="0.2">
<path d="M179.066 47.8274L176.105 10.5744C175.234 7.96318 172.274 6.57054 169.662 7.44094C168.965 7.61502 168.443 8.13726 167.921 8.48542L131.351 42.6051C119.858 40.1679 108.016 39.6457 96.3489 41.0383L95.4782 4.30751C94.6075 1.69631 91.8213 0.129591 89.2092 0.99999C88.5126 1.17407 87.8161 1.52223 87.2936 2.04447L57.864 34.5974C5.09949 62.7983 -14.7525 128.426 13.6324 181.173C42.0172 233.919 107.494 253.764 160.258 225.389C213.023 197.188 232.875 131.56 204.49 78.8137C197.873 67.3244 189.34 56.7055 179.066 47.8274Z" fill="#3F3D56"/>
<path d="M192.648 198.929C232.526 198.232 282.679 338.018 188.121 338.715C139.187 339.063 52.8138 348.637 52.8138 348.637C52.8138 348.637 -14.4043 247.845 15.5478 185.002L192.648 198.929Z" fill="#3F3D56"/>
<path d="M104.882 272.913V345.33H138.839L165.657 271.52" fill="#3F3D56"/>
<path d="M138.839 346.548H104.882C104.185 346.548 103.489 346.026 103.489 345.156V272.739C103.489 272.042 104.011 271.346 104.882 271.346C105.578 271.346 106.275 271.868 106.275 272.739V343.937H137.968L164.437 270.998C164.612 270.301 165.482 269.953 166.179 270.127C166.875 270.301 167.224 271.172 167.05 271.868L140.058 345.678C139.884 346.2 139.361 346.548 138.839 346.548Z" fill="white"/>
<path d="M192.823 350.03C208.115 350.03 220.511 345.899 220.511 340.804C220.511 335.708 208.115 331.577 192.823 331.577C177.531 331.577 165.135 335.708 165.135 340.804C165.135 345.899 177.531 350.03 192.823 350.03Z" fill="#3F3D56"/>
<path d="M178.891 332.97C178.369 332.97 177.846 332.622 177.672 332.1C177.498 331.577 163.567 284.576 196.654 270.475C197.35 270.127 198.047 270.475 198.395 271.172C198.743 271.868 198.395 272.564 197.698 272.913C166.701 286.143 179.936 330.881 180.11 331.403C180.284 332.1 179.936 332.796 179.24 332.97C179.065 332.97 179.065 332.97 178.891 332.97Z" fill="white"/>
<path d="M225.909 320.785C225.735 320.436 225.561 320.262 225.387 319.914C223.994 319.914 222.426 320.088 221.033 320.088L225.909 320.785Z" fill="#3F3D56"/>
<path d="M369.749 279.005C358.952 261.771 332.483 256.897 316.288 269.257C308.974 274.827 304.098 282.835 297.829 289.624C287.381 300.939 273.275 308.251 258.125 310.688C247.502 312.255 236.357 311.384 226.431 315.736C216.854 319.914 209.714 332.1 214.938 340.804C251.333 339.411 287.903 338.192 324.298 336.8C334.747 336.452 345.717 335.929 355.121 331.229C373.406 322.177 380.546 296.239 369.749 279.005Z" fill="#3F3D56"/>
<path d="M100.528 229.044C85.5524 229.219 70.7505 226.259 56.9934 220.34C28.2603 207.807 15.0257 186.743 14.5032 185.873C14.155 185.176 14.3291 184.48 15.0256 184.132C15.7222 183.784 16.4188 183.958 16.767 184.48C27.2155 199.277 41.4949 210.94 58.2124 217.903C84.1592 229.044 128.391 234.789 191.952 197.884C192.649 197.536 193.345 197.71 193.693 198.406C194.042 199.103 193.868 199.799 193.171 200.147C155.905 221.733 125.082 229.044 100.528 229.044Z" fill="white"/>
<path d="M106.275 162.024C101.225 162.024 97.0457 157.846 97.0457 152.798C97.0457 152.101 97.5681 151.405 98.4387 151.405C99.1353 151.405 99.8319 151.927 99.8319 152.798C99.8319 156.453 102.792 159.413 106.449 159.413C110.106 159.413 113.066 156.453 113.066 152.798C113.066 152.101 113.589 151.405 114.46 151.405C115.156 151.405 115.853 151.927 115.853 152.798C115.504 157.846 111.325 162.024 106.275 162.024Z" fill="white"/>
<path d="M93.7369 341.152C93.2145 341.152 92.692 340.804 92.5179 340.281L71.447 274.131C71.2728 273.435 71.6211 272.738 72.3177 272.39C73.0142 272.216 73.7108 272.564 74.0591 273.261L95.13 339.411C95.3041 340.107 94.9559 340.804 94.2593 341.152C93.911 340.978 93.911 341.152 93.7369 341.152Z" fill="white"/>
<path d="M121.425 359.256C136.717 359.256 149.114 355.125 149.114 350.03C149.114 344.934 136.717 340.804 121.425 340.804C106.133 340.804 93.7371 344.934 93.7371 350.03C93.7371 355.125 106.133 359.256 121.425 359.256Z" fill="#3F3D56"/>
<path d="M76.4969 358.038C91.7887 358.038 104.185 353.907 104.185 348.811C104.185 343.716 91.7887 339.585 76.4969 339.585C61.205 339.585 48.8086 343.716 48.8086 348.811C48.8086 353.907 61.205 358.038 76.4969 358.038Z" fill="#3F3D56"/>
<path d="M106.972 140.264C112.838 140.264 117.594 138.471 117.594 136.26C117.594 134.049 112.838 132.256 106.972 132.256C101.105 132.256 96.3491 134.049 96.3491 136.26C96.3491 138.471 101.105 140.264 106.972 140.264Z" fill="white"/>
<path d="M35.9221 136.608C47.2412 123.03 67.6157 121.115 81.3727 132.604C82.7658 133.823 84.1589 135.215 85.3779 136.608C99.6574 123.03 100.18 100.225 86.5969 85.9509C73.014 71.6764 50.2016 71.1541 35.9221 84.7324C21.6426 98.3106 21.1202 121.115 34.7031 135.39C35.0514 135.738 35.3997 136.086 35.9221 136.608Z" fill="white"/>
<path d="M132.57 136.608C143.889 123.03 164.264 121.115 178.021 132.604C179.414 133.823 180.807 135.215 182.026 136.608C196.305 123.03 196.828 100.225 183.245 85.9509C169.662 71.6764 146.85 71.1541 132.57 84.7324C118.291 98.3106 117.768 121.115 131.351 135.39C131.699 135.738 132.048 136.086 132.57 136.608Z" fill="white"/>
<path d="M44.9777 126.511C51.8061 126.511 57.3416 120.978 57.3416 114.152C57.3416 107.326 51.8061 101.792 44.9777 101.792C38.1493 101.792 32.6138 107.326 32.6138 114.152C32.6138 120.978 38.1493 126.511 44.9777 126.511Z" fill="#3F3D56"/>
<path d="M141.625 126.511C148.454 126.511 153.989 120.978 153.989 114.152C153.989 107.326 148.454 101.792 141.625 101.792C134.797 101.792 129.261 107.326 129.261 114.152C129.261 120.978 134.797 126.511 141.625 126.511Z" fill="#3F3D56"/>
<path d="M158.343 162.546C164.306 162.546 169.14 157.714 169.14 151.753C169.14 145.792 164.306 140.96 158.343 140.96C152.38 140.96 147.546 145.792 147.546 151.753C147.546 157.714 152.38 162.546 158.343 162.546Z" fill="#FF6584"/>
<path d="M60.8245 162.546C66.7873 162.546 71.6212 157.714 71.6212 151.753C71.6212 145.792 66.7873 140.96 60.8245 140.96C54.8616 140.96 50.0278 145.792 50.0278 151.753C50.0278 157.714 54.8616 162.546 60.8245 162.546Z" fill="#FF6584"/>
</g>
</svg>
