<svg width="475" height="105" viewBox="0 0 475 105" fill="none" xmlns="http://www.w3.org/2000/svg">
<path d="M0.25 -7.15256e-06H16.15L23.5 80.7H23.8L31.6 -7.15256e-06H49.6L57.4 80.7H57.7L65.05 -7.15256e-06H79.3L68.65 105H48.1L40.6 34.2H40.3L32.8 105H10.9L0.25 -7.15256e-06ZM87.6461 -7.15256e-06H104.146V42.75H121.846V-7.15256e-06H138.346V105H121.846V57.75H104.146V105H87.6461V-7.15256e-06ZM150.634 -7.15256e-06H195.634V15H167.134V42.75H189.784V57.75H167.134V90H195.634V105H150.634V-7.15256e-06ZM217.877 -7.15256e-06H240.227L257.327 105H240.827L237.827 84.15V84.45H219.077L216.077 105H200.777L217.877 -7.15256e-06ZM235.877 70.2L228.527 18.3H228.227L221.027 70.2H235.877ZM265.332 -7.15256e-06H281.832V90H308.982V105H265.332V-7.15256e-06ZM318.075 15H300.825V-7.15256e-06H351.825V15H334.575V105H318.075V15ZM359.814 -7.15256e-06H376.314V42.75H394.014V-7.15256e-06H410.514V105H394.014V57.75H376.314V105H359.814V-7.15256e-06ZM437.952 60.3L418.002 -7.15256e-06H435.552L446.802 38.55H447.102L458.352 -7.15256e-06H474.402L454.452 60.3V105H437.952V60.3Z" fill="black"/>
</svg>
